<?xml version="1.0" standalone="no"?>
<!DOCTYPE svg PUBLIC "-//W3C//DTD SVG 1.1//EN" "http://www.w3.org/Graphics/SVG/1.1/DTD/svg11.dtd" >
<!--
2013-9-30: Created.
-->
<svg>
<metadata>
Created by iconfont
</metadata>
<defs>

<font id="iconfont" horiz-adv-x="1024" >
  <font-face
    font-family="iconfont"
    font-weight="500"
    font-stretch="normal"
    units-per-em="1024"
    ascent="896"
    descent="-128"
  />
    <missing-glyph />
    
    <glyph glyph-name="yunshangchuan1" unicode="&#59818;" d="M1024 202.752q0-25.6-8.704-48.128t-24.576-40.448-36.864-30.208-45.568-16.384l1.024-1.024-17.408 0-4.096 0-4.096 0-675.84 0q-5.12-1.024-16.384-1.024-39.936 0-74.752 15.36t-60.928 41.472-40.96 60.928-14.848 74.752 14.848 74.752 40.96 60.928 60.928 41.472 74.752 15.36l1.024 0q-1.024 8.192-1.024 15.36l0 16.384q0 72.704 27.648 137.216t75.776 112.128 112.128 75.264 136.704 27.648 137.216-27.648 112.64-75.264 75.776-112.128 27.648-137.216q0-37.888-8.192-74.24t-22.528-69.12q5.12 1.024 10.752 1.536t10.752 0.512q27.648 0 52.736-10.752t43.52-29.696 29.184-44.032 10.752-53.76zM665.6 324.608q20.48 0 26.624 4.608t-8.192 22.016q-14.336 18.432-31.744 48.128t-36.352 60.416-38.4 57.344-37.888 38.912q-18.432 13.312-27.136 14.336t-25.088-12.288q-18.432-15.36-35.84-38.912t-35.328-50.176-35.84-52.224-36.352-45.056q-18.432-18.432-13.312-32.768t25.6-14.336l16.384 0q9.216 0 19.968-0.512t20.992-0.512l17.408 0q14.336-1.024 18.432-9.728t4.096-24.064q0-17.408-0.512-30.72t-0.512-25.6-0.512-25.6-0.512-30.72q0-7.168 1.536-15.36t5.632-15.36 12.288-11.776 21.504-4.608l23.552 0q9.216 0 27.648-1.024 24.576 0 28.16 12.288t3.584 38.912q0 23.552 0.512 42.496t0.512 51.712q0 23.552 4.608 36.352t19.968 12.8q11.264 0 32.256 0.512t32.256 0.512z"  horiz-adv-x="1024" />

    
    <glyph glyph-name="tupian" unicode="&#58880;" d="M427.045253 383.545697q-29.984028 0-55.879326 11.357587t-44.976043 30.892635-30.438332 45.430346-11.357587 54.970719 11.357587 54.970719 30.438332 44.976043 44.976043 30.438332 55.879326 11.357587q29.075421 0 54.970719-11.357587t44.976043-30.438332 30.438332-44.976043 11.357587-54.970719-11.357587-54.970719-30.438332-45.430346-44.976043-30.892635-54.970719-11.357587zM1137.575865-128l-1137.575865 0 0 1024 1137.575865 0 0-113.575865 0-910.424135zM1024 782.424135l-909.515528 0 0-702.35315q16.354925 23.62378 36.344277 47.24756t41.795918 42.704525 44.976043 31.346939 46.793256 12.266193q28.166815 0 48.61047-4.088731t36.344277-10.44898 29.529725-14.083407 29.529725-14.083407 35.889973-10.44898 48.156167-4.088731 48.61047 16.809228 37.707187 42.250222 34.527063 54.516415 39.070098 54.516415 51.790594 42.250222 72.688554 16.809228q36.344277 0 69.962733-22.26087t62.239574-57.696539 52.699201-79.048802 42.250222-85.409051l0 643.2937z"  horiz-adv-x="1138" />

    
    <glyph glyph-name="genzongmubiaoshezhi" unicode="&#60193;" d="M519.672328 268.915085q-6.137862 1.022977-11.252747-3.068931t-9.206793-9.206793q-5.114885-7.160839-7.672328-19.948052t-2.557443-26.085914 2.557443-25.062937 8.695305-17.902098q6.137862-7.160839 17.390609-9.206793 9.206793 2.045954 17.390609-1.022977 7.160839-2.045954 14.321678-8.695305t12.275724-20.971029q8.183816-22.505495 1.022977-41.942058t-20.45954-30.689311q-9.206793-8.183816-11.764236-14.833167t-1.534466-12.787213q2.045954-6.137862 6.137862-13.298701t9.206793-15.344655l-33.758242-65.470529-87.976024 343.72028-364.17982 98.205794 958.529471 520.695305-191.296703-363.156843q-17.390609 4.091908-39.896104 3.58042t-34.781219-11.764236q-4.091908-3.068931-5.114885-8.183816l-2.045954-10.22977q-1.022977-8.183816-6.137862-20.45954t-28.643357-21.482517q-11.252747-4.091908-19.948052-10.22977t-16.367632-10.22977-15.344655-4.603397-15.856144 7.672328q-10.22977 10.22977-20.45954 9.206793-8.183816-1.022977-16.879121-6.649351t-17.390609-13.298701-15.344655-16.879121-9.718282-17.390609q-4.091908-8.183816-3.58042-16.879121t5.626374-12.787213l0-1.022977 12.275724-12.275724q4.091908-4.091908 4.603397-8.183816t-2.045954-10.22977-6.649351-17.390609q-9.206793-21.482517-19.436563-38.361638t-32.735265-15.856144zM1020.931069 250.501499q4.091908-9.206793 4.091908-23.016983t-4.091908-27.108891q-2.045954-7.160839-6.649351-9.718282t-9.718282-2.557443q-14.321678 1.022977-28.643357-6.649351t-20.45954-21.994006-3.068931-28.643357 13.298701-24.551449q2.045954-2.045954 4.091908-5.114885 4.091908-5.114885 2.045954-13.298701-2.045954-10.22977-15.856144-24.03996t-26.085914-14.833167q-6.137862-1.022977-9.718282 1.022977t-7.672328 5.114885q-8.183816 7.160839-22.505495 13.298701t-28.643357 0q-14.321678-5.114885-21.994006-18.413586t-7.672328-27.62038q0-11.252747-8.183816-16.367632t-25.574426-5.114885-28.643357 5.114885q-10.22977 5.114885-8.183816 15.344655l-1.022977 0q1.022977 14.321678-6.137862 28.643357t-21.482517 20.45954-30.177822 2.045954-26.085914-15.344655q-6.137862-7.160839-19.436563-3.068931-6.137862 3.068931-12.787213 8.183816t-12.275724 11.764236-10.22977 13.298701-5.626374 11.764236q-2.045954 8.183816 9.206793 17.390609 8.183816 8.183816 12.787213 20.971029t-0.511489 27.108891q-3.068931 9.206793-10.22977 14.321678t-15.344655 8.183816q-9.206793 4.091908-19.436563 5.114885-8.183816 1.022977-12.275724 6.137862-7.160839 8.183816-6.649351 28.131868t6.649351 30.177822q6.137862 9.206793 13.298701 8.183816 14.321678 0 29.666334 7.160839t21.482517 21.482517 1.022977 29.666334-16.367632 25.574426l0 1.022977q-3.068931 2.045954-3.068931 8.183816t2.045954 11.252747q5.114885 11.252747 16.879121 22.505495t21.994006 13.298701q5.114885 1.022977 7.672328-1.022977t5.626374-5.114885q11.252747-10.22977 25.574426-13.81019t28.643357 1.534466q7.160839 3.068931 12.787213 9.206793t9.718282 13.298701 6.137862 12.787213 2.045954 8.695305q0 8.183816 4.091908 12.275724 5.114885 5.114885 13.81019 6.649351t17.390609 1.534466 16.367632-2.045954 11.764236-3.068931q5.114885-2.045954 7.160839-7.160839t2.045954-9.206793q-1.022977-14.321678 6.137862-27.108891t21.482517-18.925075 29.154845-3.58042 25.062937 13.81019q8.183816 8.183816 17.390609 5.114885 11.252747-5.114885 23.528472-17.902098t14.321678-27.108891q0-3.068931-2.045954-7.160839t-4.091908-5.114885q-11.252747-10.22977-14.833167-24.551449t2.557443-28.643357q5.114885-14.321678 19.948052-21.994006t29.154845-6.649351q5.114885 0 9.206793-2.045954t6.137862-7.160839zM798.945055 130.813187q19.436563 0 37.338661 7.672328t30.689311 20.45954 20.45954 30.177822 7.672328 37.85015q0 19.436563-7.672328 37.338661t-20.45954 30.689311-30.689311 20.45954-37.338661 7.672328-36.827173-7.672328-30.177822-20.45954-20.45954-30.689311-7.672328-37.338661q0-20.45954 7.672328-37.85015t20.45954-30.177822 30.177822-20.45954 36.827173-7.672328z"  horiz-adv-x="1026" />

    
    <glyph glyph-name="shuaxin" unicode="&#58881;" d="M632 101.0625c-48.4375-34-105.25-50.9375-163.1875-50.25-7.6875 0.125-15.25 0.6875-22.8125 1.25-3.0625 0.3125-6.125 0.8125-9.1875 1.25-6 0.75-11.8125 1.5-17.625 2.6875-3.5625 0.625-7.125 1.625-10.5625 2.4375-5.6875 1.25-11.3125 2.5-16.875 4.125-2.625 1-5.125 1.8125-7.75 2.875-6.4375 2-12.8125 4.25-18.9375 6.8125-1.375 0.625-2.75 1.125-4.125 1.6875-7.1875 3.3125-14.3125 6.6875-21.25 10.3125-0.25 0.1875-0.625 0.3125-0.875 0.5-23.375 12.875-44.6875 28.6875-63.4375 47.5625-0.3125 0.3125-0.5625 0.6875-0.9375 1-5.8125 5.8125-11.375 11.8125-16.625 18.3125-1.0625 1.3125-2.125 2.625-3.25 4.1875C216.5 203.4375 193.5625 263.75 193.5625 329.3125h73.375L149.625 505.25 32.3125 329.3125h73.25c0-77.0625 24.125-148.5625 64.9375-207.75 0.5-0.875 0.8125-1.8125 1.375-2.5625 4.1875-6.125 8.9375-11.6875 13.4375-17.3125 1.75-2.0625 3.25-4.1875 5.0625-6.5 6.625-8 13.8125-15.625 21.0625-23.125 0.75-0.75 1.375-1.375 2-2.0625 24.5625-24.625 52.25-45.25 82.4375-61.875 0.8125-0.4375 1.5-0.8125 2.4375-1.3125 8.6875-4.6875 17.625-9 26.625-12.9375 2.3125-1 4.5-2 6.6875-2.9375 7.8125-3.3125 15.75-6.0625 23.75-8.8125 3.8125-1.3125 7.5-2.5625 11.375-3.8125 7-2 14.125-3.8125 21.375-5.4375 4.8125-1.125 9.4375-2.375 14.375-3.25 2-0.5 3.875-1.125 5.875-1.3125 6.875-1.25 13.6875-1.875 20.4375-2.6875 2.5-0.4375 4.9375-0.875 7.375-1.125 12.25-1.1875 24.4375-1.9375 36.625-1.9375 74.4375 0 147.1875 22.75 209.5625 66.5 19.875 13.9375 24.75 41.4375 10.875 61.1875C679.25 110.3125 651.875 115.125 632 101.0625M838.625 329.3125c0 76.875-23.8125 148.3125-64.4375 207.1875-0.625 1-1 2.0625-1.5 2.9375-5.25 7.25-10.625 14-16.1875 20.8125-0.625 0.75-1.25 1.625-1.8125 2.5-37.375 45-84.0625 79.9375-136.875 102.75-1.5625 0.625-2.875 1.3125-4.4375 1.9375C604.875 670.9375 596.25 673.9375 587.4375 676.9375 584.4375 677.9375 581.25 679.0625 578.125 680 570.5 682.3125 562.875 684.1875 555.125 686 550.8125 686.9375 546.4375 688.0625 542.125 688.9375 540 689.3125 538.0625 689.9375 535.8125 690.375 530 691.3125 524.3125 691.875 518.5 692.5625 514.4375 693 510.5625 693.625 506.5 694.0625 496.75 695 487.0625 695.375 477.375 695.5625c-1.75 0-3.5 0.25-5.25 0.25-0.3125 0-0.625-0.0625-0.9375-0.125-74.375-0.0625-147-22.5-209.25-66.1875C242.0625 615.625 237.1875 588.1875 251.1875 568.1875 265 548.375 292.5625 543.5 312.5 557.5c48.0625 33.625 104.1875 50.75 161.75 50.1875 8.25-0.0625 16.5-0.4375 24.5-1.25C501.25 606.25 503.625 605.875 506.125 605.5c6.625-0.8125 13.1875-1.6875 19.6875-3.0625 2.8125-0.5 5.6875-1.25 8.375-1.875C540.625 599.125 546.875 597.625 553.0625 595.75 555.125 595.1875 557 594.5 558.875 593.75c7.1875-2.3125 14.1875-4.75 20.9375-7.625C580.5625 585.9375 581.25 585.375 581.9375 585.125c41.0625-17.625 77-44.75 105.125-78.75C687.125 506.25 687.25 506 687.5 505.8125c39.5-48.125 63.25-109.5625 63.3125-176.5h-73.4375l117.5-176 117.1875 176H838.625z"  horiz-adv-x="1000" />

    
    <glyph glyph-name="xiangyou" unicode="&#59443;" d="M797.6589 313.8616 414.7028 726.3829H238.01538420026444l382.9551-412.5213-382.9551-382.9404h176.68844945769544L797.6589 313.8616zM797.6589 313.8616"  horiz-adv-x="1000" />

    
    <glyph glyph-name="xiangzuo" unicode="&#59279;" d="M238.0154 343.4425l382.9551-412.5203h176.68844945769544l-382.9551 412.5203 382.9551 382.9404H620.9704418285552L238.0154 343.4425zM238.0154 343.4425"  horiz-adv-x="1000" />

    
    <glyph glyph-name="yonghumingzhuanhuan" unicode="&#58882;" d="M512-212C229.696-212 0 17.696 0 300S229.696 812 512 812s512-229.696 512-512S794.304-212 512-212zM512 748C264.96 748 64 547.04 64 300s200.96-448 448-448 448 200.96 448 448S759.04 748 512 748zM512 612c-102.048 0-184.8-82.048-184.8-183.296 0-101.216 82.72-183.264 184.8-183.264s184.768 82.048 184.768 183.264C696.768 529.952 614.048 612 512 612zM512 297.824c-72.896 0-132 58.624-132 130.912 0 72.32 59.104 130.912 132 130.912s132-58.624 132-130.912C644 356.416 584.896 297.824 512 297.824zM300.8 36M723.2 36M512 297.824c-145.824 0-264-117.216-264-261.824 18.336 0 35.744 0 52.8 0 0 115.648 94.56 209.44 211.2 209.44 116.64 0 211.2-93.792 211.2-209.44 17.024 0 34.464 0 52.8 0C776 180.608 657.824 297.824 512 297.824z"  horiz-adv-x="1024" />

    
    <glyph glyph-name="daima" unicode="&#58883;" d="M448 236l-64 64-192-192 192-192 64 64-128 128zM576-20l64-64 192 192-192 192-64-64 128-128zM903.424 612.576l-142.88 142.848c-31.104 31.104-92.576 56.576-136.576 56.576l-480 0c-44 0-80-36-80-80l0-864c0-44 36-80 80-80l736 0c44 0 80 36 80 80l0 608c0 44-25.472 105.472-56.576 136.576zM858.176 567.328c3.136-3.136 6.24-6.976 9.28-11.328l-163.456 0 0 163.456c4.352-3.04 8.192-6.144 11.328-9.28l142.88-142.848zM896-132c0-8.672-7.328-16-16-16l-736 0c-8.672 0-16 7.328-16 16l0 864c0 8.672 7.328 16 16 16l480 0c4.832 0 10.24-0.608 16-1.696l0-254.304 254.304 0c1.088-5.76 1.696-11.168 1.696-16l0-608z"  horiz-adv-x="1024" />

    
    <glyph glyph-name="yiwen" unicode="&#60064;" d="M511.998 812.004C229.228 812.004 0 582.772 0 300.002c0-282.772 229.228-512.006 511.998-512.006C794.772-212.004 1024 17.23 1024 300 1024 582.77 794.774 812.004 511.998 812.004zM561.686 4.556c0-14.138-11.458-25.602-25.6-25.602l-76.8 0c-14.136 0-25.598 11.462-25.598 25.602l0 76.798c0 14.142 11.462 25.604 25.598 25.604l76.8 0c14.14 0 25.6-11.46 25.6-25.604L561.686 4.556zM688.588 356.94c-10.29-14.672-33.646-33.368-62.886-56.162l-32.404-22.362c-15.738-12.208-29.696-26.42-34.858-42.692-1.764-5.544-3.086-14.656-3.976-24.496-0.448-4.952-4.878-15.054-15.232-15.054-25.37 0-73.72 0-83.34 0-13.546 0-15.966 10.61-15.74 15.8 1.5 34.016 4.616 64.216 18.476 80.474 28.06 32.9 91.908 73.852 91.908 73.852 9.72 7.336 17.59 15.31 23.542 24 10.82 14.92 19.796 31.304 19.796 49.214 0 20.584-6.018 39.348-18.094 56.332-12.034 16.916-34.078 25.392-66.02 25.392-31.444 0-53.734-10.436-66.874-31.3-9.706-15.416-15.818-29.588-18.348-45.01-0.9-5.458-4.4-16.954-16.066-16.954-24.65 0-70.094 0-81.282 0-17.308 0-21.118 11.216-20.618 16.622 6.266 68.138 32.892 114.692 79.972 144.586 32.014 20.582 71.4 30.91 118.12 30.91 61.39 0 112.35-14.634 152.978-43.944 40.556-29.27 60.892-72.642 60.892-130.15C718.538 410.78 706.178 381.082 688.588 356.94z"  horiz-adv-x="1024" />

    
    <glyph glyph-name="f14" unicode="&#58900;" d="M951.84384 39.164672 858.964992 176.534272c-3.65568 5.244928-11.283456 9.217024-20.578304 10.646528-9.218048 1.350656-19.068928 0-26.377216-3.8144L622.756864 86.277888c-8.582144-4.369408-12.314624-11.121664-9.852928-17.79712 2.622464-6.592512 11.123712-11.838464 21.92896-13.425664l49.975296-7.469056c-49.657856-58.3168-115.441664-93.751296-179.639296-93.751296-125.056 0-264.572928 137.21088-264.572928 333.852672 0 23.199744-31.14496 42.1888-69.599232 42.1888s-69.599232-18.989056-69.599232-42.1888c0-234.381312 177.334272-418.071552 403.770368-418.071552 127.916032 0 242.802688 57.759744 317.723648 157.154304l95.818752-14.45888c2.461696-0.319488 4.845568-0.477184 7.230464-0.477184 0.157696 0 0.157696 0 0.397312 0 16.446464 0 29.794304 8.024064 29.794304 17.954816C956.132352 33.285888 954.543104 36.383488 951.84384 39.164672L951.84384 39.164672zM185.933824 419.894016c-9.295872 1.429504-17.002496 5.243904-20.578304 10.645504L70.729728 570.29504c-4.289536 6.27712-2.224128 13.666304 5.08416 18.671616 7.310336 5.243904 18.910208 7.38816 29.715456 5.799936l95.8976-14.459904c74.923008 99.233792 189.80864 157.233152 317.725696 157.233152 226.435072 0 403.769344-183.770112 403.769344-418.151424 0-23.358464-31.143936-42.1888-69.600256-42.1888-38.453248 0-69.598208 18.830336-69.598208 42.1888 0 196.641792-139.437056 333.853696-264.57088 333.853696-64.196608 0-129.983488-35.434496-179.64032-93.75232l49.975296-7.469056c10.884096-1.826816 19.306496-6.832128 21.927936-13.426688 2.542592-6.674432-1.271808-13.66528-9.85088-18.034688l-189.33248-97.010688c-5.402624-2.78016-12.235776-4.13184-19.147776-4.13184C190.621696 419.416832 188.237824 419.576576 185.933824 419.894016z"  horiz-adv-x="1024" />

    
    <glyph glyph-name="quanxian" unicode="&#58977;" d="M889.079736 533.650481C864.435467 674.879016 731.212937 769.074352 591.466564 744.234617 451.786708 719.35088 333.839696 610.688042 358.483966 469.613002c5.31834-30.464849 20.048413-78.067007 37.425888-112.230084L142.157382-8.676222c-9.367729-13.570063-14.664579-37.818327-11.862651-54.079686l10.942662-62.691831c-10.549696 60.393485 2.888912-21.886473 10.943685-21.4925l83.519534-1.2689c16.064519 2.800789 36.418913 16.501836 45.239151 30.289863l100.393521 156.975171 0.831982 1.028423 87.58939-6.850012 117.181547 183.818539c38.497333-6.588045 93.739712-4.333702 126.416241 1.487887C853.054812 243.425494 913.76801 392.50995 889.079736 533.650481L889.079736 533.650481zM765.333411 461.296593c-38.476866-55.414077-77.631189-16.370853-132.588053 22.5199-54.847366 38.781258-104.639393 62.702064-66.229044 118.117165 38.455376 55.415101 114.095129 68.984141 168.9865 30.070876C790.41465 593.223275 803.788787 516.71067 765.333411 461.296593L765.333411 461.296593zM765.333411 461.296593"  horiz-adv-x="1024" />

    
    <glyph glyph-name="chaxun" unicode="&#58884;" d="M946.734545-13.250909l-162.909091 162.909091c-20.48 20.48-51.665455 24.203636-75.869091 11.170909l-30.72 30.72c47.010909 58.647273 74.938182 133.12 74.938182 214.109091 0 191.301818-154.996364 346.298182-345.832727 346.298182-191.301818 0-346.298182-154.996364-346.298182-346.298182 0-190.836364 154.996364-345.832727 346.298182-345.832727 80.989091 0 155.461818 27.927273 214.109091 74.938182l30.72-30.72c-13.032727-24.203636-9.309091-55.389091 11.170909-75.869091l162.909091-162.909091c25.134545-25.134545 66.094545-25.134545 91.229091 0l30.254545 30.254545C971.869091-79.345455 971.869091-38.385455 946.734545-13.250909zM124.276364 405.658182c0 155.927273 126.138182 282.065455 282.065455 282.065455 155.461818 0 282.065455-126.138182 282.065455-282.065455s-126.603636-281.6-282.065455-281.6C250.414545 124.058182 124.276364 250.196364 124.276364 405.658182zM477.137455 234.510545c-138.007273 0-249.949091 111.895273-249.949091 249.949091 0 3.677091 0.372364 7.261091 0.558545 10.938182C209.547636 465.888 198.842182 431.211636 198.842182 394.068364c0-106.728727 86.528-193.210182 193.210182-193.210182 41.192727 0 79.313455 12.986182 110.685091 34.955636C494.359273 234.929455 485.794909 234.510545 477.137455 234.510545z"  horiz-adv-x="1024" />

    
    <glyph glyph-name="shangchuan" unicode="&#59819;" d="M934.56756-8.418484 934.56756-8.418484 89.43244-8.418484c-16.683645 0-30.183653 13.499455-30.183653 30.182416L59.248787 263.221216c0 16.653285 13.500008 30.182416 30.183653 30.182416s30.183653-13.529131 30.183653-30.182416L119.616093 51.946348 904.383907 51.946348 904.383907 263.221216c0 16.653285 13.500008 30.182416 30.183653 30.182416s30.183653-13.529131 30.183653-30.182416l0-241.457284C964.751213 5.080971 951.251205-8.418484 934.56756-8.418484zM641.752867 543.910013 542.183141 664.579303l0-431.481152c0-16.712637-13.500008-30.241768-30.183653-30.241768s-30.183653 13.529131-30.183653 30.241768l0 430.330956-98.626199-119.520117c-11.819671-11.908214-31.008472-11.908214-42.829166 0-11.849348 11.877515-11.849348 31.154557 0 43.033096L489.539044 767.770524c6.307918 6.337335 14.678906 9.049097 22.932208 8.607028 8.252279 0.442068 16.62429-2.269693 22.961885-8.607028l149.148896-180.827415c11.849348-11.877515 11.849348-31.154557 0-43.033096C672.761339 532.001799 653.572538 532.001799 641.752867 543.910013z"  horiz-adv-x="1024" />

    
    <glyph glyph-name="xiazai" unicode="&#59820;" d="M938.323248 475.402733c-16.831007 0-30.45177 13.619182-30.45177 30.450523L907.871478 719.006913l-791.743979 0 0-213.152635c0-16.83134-13.63509-30.450523-30.45177-30.450523s-30.45177 13.619182-30.45177 30.450523L55.223958 749.456413c0 16.801664 13.63509 30.450523 30.45177 30.450523l0 0 852.64752 0c16.83203 0 30.45177-13.620206 30.45177-30.450523l0-243.603157C968.775018 489.022938 955.155278 475.402733 938.323248 475.402733zM381.108146 222.670661l100.439572-121.742738L481.547718 536.244426c0 16.83134 13.63509 30.509874 30.45177 30.509874 16.831007 0 30.45177-13.678534 30.45177-30.509874l0-434.157097 99.503208 120.583333c11.924052 12.012591 31.283752 12.012591 43.238505 0 11.925076-11.983939 11.925076-31.431873 0-43.415812l-150.533486-182.435029c-6.364202-6.393617-14.794544-9.129938-23.135854-8.682753-8.341311-0.447185-16.787003 2.289136-23.151205 8.682753l-150.503809 182.435029c-11.939403 11.983939-11.939403 31.431873 0 43.415812C349.809044 234.683253 369.168744 234.683253 381.108146 222.670661z"  horiz-adv-x="1024" />

    
    <glyph glyph-name="zanting3" unicode="&#59549;" d="M754.375399-40.139953 633.187444-40.139953c-33.46246 0-60.594489 27.130917-60.594489 60.592007L572.592954 747.54897c0 33.461089 27.132029 60.590983 60.594489 60.590983l121.187955 0c33.46246 0 60.593466-27.129894 60.593466-60.590983l0-727.096916C814.968865-13.010059 787.837859-40.139953 754.375399-40.139953zM754.375399 717.252966c0 16.731056-13.550153 30.29498-30.296221 30.29498l-60.594489 0c-16.746069 0-30.296221-13.564947-30.296221-30.29498l0-666.505933c0-16.745383 13.550153-30.29498 30.296221-30.29498l60.594489 0c16.746069 0 30.296221 13.549597 30.296221 30.29498L754.375399 717.252966zM390.812556-40.139953 269.624601-40.139953c-33.46246 0-60.593466 27.130917-60.593466 60.592007L209.031135 747.54897c0 33.461089 27.131006 60.590983 60.593466 60.590983l121.187955 0c33.46246 0 60.593466-27.129894 60.593466-60.590983l0-727.096916C451.406022-13.010059 424.275017-40.139953 390.812556-40.139953zM390.812556 717.252966c0 16.731056-13.551176 30.29498-30.296221 30.29498l-60.594489 0c-16.746069 0-30.296221-13.564947-30.296221-30.29498l0-666.505933c0-16.745383 13.551176-30.29498 30.296221-30.29498l60.594489 0c16.746069 0 30.296221 13.549597 30.296221 30.29498L390.812556 717.252966z"  horiz-adv-x="1024" />

    
    <glyph glyph-name="zhiwu" unicode="&#59550;" d="M874.976976-58.068278 142.882936-58.068278c-42.556955 0-77.062207 34.503838-77.062207 77.060073L65.820728 596.936717c0 42.556235 34.505252 77.060073 77.062207 77.060073l231.187645 0L374.070581 635.466242 142.882936 635.466242c-21.278478 0-38.531104-17.251919-38.531104-38.529525l0-577.944921c0-21.278629 17.252626-38.529525 38.531104-38.529525l732.09404 0c21.279501 0 38.531104 17.250896 38.531104 38.529525L913.508079 596.936717c0 21.277606-17.251603 38.529525-38.531104 38.529525L643.78933 635.466242l0 38.529525 231.187645 0c42.557979 0 77.063231-34.503838 77.063231-77.060073l0-577.944921C952.039183-23.564439 917.534954-58.068278 874.976976-58.068278zM585.992675 404.288069l192.656542 0c10.647937 0 19.265552-8.616238 19.265552-19.264762 0-10.647501-8.617615-19.264762-19.265552-19.264762L585.992675 365.758544c-10.63054 0-19.265552 8.617261-19.265552 19.264762C566.727123 395.67183 575.362134 404.288069 585.992675 404.288069zM585.992675 173.109895l77.062207 0c10.648961 0 19.265552-8.616238 19.265552-19.264762 0-10.647501-8.616591-19.264762-19.265552-19.264762l-77.062207 0c-10.63054 0-19.265552 8.617261-19.265552 19.264762C566.727123 164.493657 575.362134 173.109895 585.992675 173.109895zM585.992675 288.699494l192.656542 0c10.647937 0 19.265552-8.635681 19.265552-19.264762 0-10.648524-8.617615-19.264762-19.265552-19.264762L585.992675 250.169969c-10.63054 0-19.265552 8.616238-19.265552 19.264762C566.727123 280.063813 575.362134 288.699494 585.992675 288.699494zM354.805029 481.348142c63.835433 0 115.593311-69.007677 115.593311-154.119123 0-32.377408-7.525702-62.384839-20.300157-87.180572 23.49812-13.20679 39.565709-38.058804 39.565709-66.937528 0-42.556235-34.505252-77.060073-77.062207-77.060073L297.00735 96.050846c-42.556955 0-77.062207 34.503838-77.062207 77.060073 0 28.878724 16.067589 53.730739 39.585152 66.937528-12.793898 24.795732-20.318577 54.804187-20.318577 87.180572C239.210695 412.340465 290.968573 481.348142 354.805029 481.348142zM354.805029 442.818617c-42.557979 0-77.063231-51.755758-77.063231-115.589598s34.505252-115.588575 77.063231-115.588575c42.556955 0 77.062207 51.754734 77.062207 115.588575S397.361984 442.818617 354.805029 442.818617zM258.476247 173.109895c0-21.277606 17.252626-38.529525 38.531104-38.529525l115.594334 0c21.278478 0 38.531104 17.251919 38.531104 38.529525 0 15.690354-9.406616 29.123294-22.85955 35.123962-19.961429-21.936615-45.567645-35.123962-73.468209-35.123962-27.901587 0-53.489383 13.18837-73.469232 35.123962C267.882863 202.23319 258.476247 188.800249 258.476247 173.109895zM624.523778 558.407192 393.336133 558.407192c-10.648961 0-19.265552 8.616238-19.265552 19.264762 0 10.630105 8.616591 19.264762 19.265552 19.264762l19.265552 0L412.601685 635.466242l0 38.529525 0 19.264762 0 38.529525c0 53.203736 43.121843 96.323812 96.327759 96.323812s96.328783-43.120077 96.328783-96.323812l0-38.529525 0-19.264762L605.258227 635.466242l0-38.529525 19.265552 0c10.647937 0 19.264528-8.634658 19.264528-19.264762C643.78933 567.02343 635.172739 558.407192 624.523778 558.407192zM566.727123 635.466242l0 38.529525 0 19.264762 0 38.529525c0 31.92613-25.869217 57.795311-57.797679 57.795311s-57.796656-25.868157-57.796656-57.795311l0-38.529525 0-19.264762L451.132788 635.466242l0-38.529525 115.594334 0L566.727123 635.466242zM508.929444 712.526315c-10.648961 0-19.265552 8.616238-19.265552 19.264762 0 10.630105 8.616591 19.264762 19.265552 19.264762s19.265552-8.634658 19.265552-19.264762C528.196019 721.142553 519.579428 712.526315 508.929444 712.526315z"  horiz-adv-x="1024" />

    
    <glyph glyph-name="xiangzuo2" unicode="&#59445;" d="M631.503 805.393 729.15 715.161 328.458 300 729.15-109.795 638.237-205.394 143.264 300Z"  horiz-adv-x="1024" />

    
    <glyph glyph-name="xia" unicode="&#59292;" d="M876.105 507.721h-729.819l368.786-437.102 361.033 437.102z"  horiz-adv-x="1024" />

    
    <glyph glyph-name="shouqi" unicode="&#59446;" d="M511.213-98.070l-381.116 387.414 381.116 381.133v-150.778l-230.345-230.355 230.345-230.353v-157.060zM830.537-98.070l-381.116 387.414 381.116 381.133v-150.778l-230.344-230.355 230.344-230.354v-157.060z"  horiz-adv-x="1024" />

    
    <glyph glyph-name="shouqi1" unicode="&#59447;" d="M512.787 674.070l381.116-387.414-381.116-381.133v150.778l230.345 230.355-230.345 230.353v157.060zM193.463 674.070l381.116-387.414-381.116-381.133v150.778l230.344 230.355-230.344 230.354v157.060z"  horiz-adv-x="1024" />

    
    <glyph glyph-name="xia1" unicode="&#59293;" d="M946.963376 589.418622 511.999488 10.583424 77.0356 589.418622Z"  horiz-adv-x="1024" />

    
    <glyph glyph-name="shanchu" unicode="&#58908;" d="M731.918024 631.466274 293.285433 631.466274c-40.383364 0-73.105944-32.720216-73.105944-73.102948l0-24.367991 584.843455 0 0 24.367991C805.023968 598.746058 772.302411 631.466274 731.918024 631.466274M604.221575 680.201232l10.756412-76.909647L410.22547 603.291584l10.755389 76.909647L604.221575 680.201232M610.076149 728.936189l-194.947818 0c-20.108791 0-38.813548-16.276708-41.621615-36.217876l-14.254216-101.968369c-2.78453-19.916609 11.399075-36.19434 31.507865-36.19434l243.684773 0c20.107767 0 34.292396 16.276708 31.484328 36.217876l-14.255239 101.968369C648.887651 712.659481 630.183917 728.936189 610.076149 728.936189M744.102007 485.261401 281.100427 485.261401c-26.795347 0-46.761893-21.845541-44.334511-48.544623L276.699007-2.278511c2.402821-26.700105 26.344051-48.544623 53.139398-48.544623l365.527671 0c26.795347 0 50.735553 21.845541 53.139398 48.544623l39.932067 438.995289C790.8639 463.41586 770.897354 485.261401 744.102007 485.261401M415.128331 46.646781l-73.105944 0-24.368989 341.144704 97.473909 0L415.127308 46.646781zM561.339195 46.646781l-97.473909 0L463.865286 387.791485l97.473909 0L561.339195 46.646781zM683.18107 46.646781l-73.105944 0L610.075126 387.791485l97.473909 0L683.18107 46.646781z"  horiz-adv-x="1024" />

    
    <glyph glyph-name="jiekouguanli" unicode="&#58885;" d="M948.513749 487.155405 948.513749 687.845193l-66.993485 0 0 33.43653-33.508511 0 0 33.460066-66.994508 0 0 33.43653L714.000222 788.178319 714.000222 821.614849l-33.484974 0 0-66.87306 33.484974-22.288632 0-11.171434 16.782909 0 16.725602-11.132548 0-22.303982-100.501996 0 0-66.896596L379.008236 620.948597c0 0-158.776555 26.819832-201.005016-133.793192-1.512509-5.718235-18.290301-150.499689 100.501996-167.228699 5.340854-0.756223 340.309303 23.063275 469.003517-133.793192 7.490908-9.145287 0-100.333126 0-100.333126s-23.016123-66.896596-100.501996-66.896596c-77.462336 0-569.506536 0-569.506536 0l0-66.896596 469.003517 0c0 0 272.205485-29.253254 268.022038 167.229722-0.654943 30.555923-1.104193 53.223179-1.398917 69.721945-8.119244 15.922644-51.816209 95.321996-132.61159 130.967844-121.723166 53.710272-335.016546 66.896596-335.016546 66.896596s-96.319572-14.626115-100.501996 33.43653c-4.182424 48.087205-6.286428 131.712811 134.011531 133.793192 140.273398 2.102894 267.998501 0 267.998501 0l0-66.896596L948.513749 487.156428zM813.126838 188.958862c0.928177-1.820462 1.398917-2.825348 1.398917-2.825348S811.526322 278.566716 813.126838 188.958862z"  horiz-adv-x="1024" />

    
    <glyph glyph-name="sanweimoxing2" unicode="&#59557;" d="M931.354247 791.14693c0.367382 9.836019-22.233261 17.5804-82.311983 15.702634L459.0709 806.849564c-57.086452 0-111.716868-6.980995-138.403741-22.629393L135.926215 671.357683c-5.811594-2.885723-11.32744-6.260587-16.489208-10.073426l-2.622841-1.602498c-4.438261-2.536776-8.098777-5.460362-9.545791-8.843412-19.60121-19.479657-31.706395-46.242184-31.706395-75.78708l0-503.419578c0-59.579957 49.210765-107.880009 109.903495-107.880009l512.915385 0c35.298347 0 66.704901 16.325827 86.817785 41.697681l140.519001 105.541755c16.298866 12.242835 29.395675 67.223031 29.395675 122.921587l0 470.710618C955.112297 753.726669 944.933054 789.282466 931.354247 791.14693zM748.255777 111.451604c0-48.950875-41.625708-88.627527-92.999831-88.627527L221.147577 22.824077c-51.376169 0-93.030532 39.676651-93.030532 88.627527L128.117045 525.04741c0 48.949852 41.654362 88.626503 93.030532 88.626503l434.108369 0c51.374123 0 92.999831-39.675628 92.999831-88.626503L748.255777 111.451604zM724.803708 691.483046c-12.952517-10.283204-28.760176-18.691711-78.779386-18.691711L291.87833 672.791335c-27.602769-4.803399-75.371636-6.879688-32.278447 18.691711l115.847101 71.319325c15.523168 7.990998 30.203097 11.639085 77.251527 11.639085l347.653872 1.038656c47.019776 0 75.721621 8.076956 63.980748-1.255597L724.803708 691.483046zM925.486369 274.801972c0-45.705971-9.346238-90.819448-21.000127-100.871385l-96.173234-82.977853L808.313009 575.050244c0 24.415063-8.268653 46.929846-22.201538 65.00655 2.702662 9.818623 5.892439 17.72264 9.371822 22.889313 1.87375 1.39272 3.470173 2.694365 4.753452 3.874237l4.18447 3.850701 100.06605 60.430324c11.653888 7.023974 21.000127-24.388457 21.000127-70.093405L925.487393 274.801972z"  horiz-adv-x="1024" />

    
    <glyph glyph-name="jiaose" unicode="&#59105;" d="M957.614545 417.851105 957.614545 417.851105c-2.710738 88.409562-25.862018 153.285129-70.547753 197.954491-28.290323 28.28009-64.709791 47.89994-110.045325 59.195194-1.37737 1.144056-2.216481 1.788739-2.216481 1.788739-2.190899-1.370207-4.405333-2.731204-6.667863-4.074805-68.1481-40.450271-159.292959-62.726623-256.646218-62.726623-97.353258 0-188.498118 22.276353-256.645195 62.726623-2.26253 1.343601-4.476965 2.704598-6.66684 4.074805 0 0-0.723477-0.555655-1.926886-1.549286-45.798069-11.254322-82.551134-30.947849-111.049189-59.434647-44.685735-44.668339-67.837015-109.544929-70.547753-197.954491l0 0-0.664126-51.16531 140.509151 0 0-231.347019 0-209.574133 0-15.921621c0-31.033807 25.248034-56.281841 56.281841-56.281841l120.576169 0 66.514903 0 127.237893 0 57.980529 0 129.110543 0c31.033807 0 56.281841 25.248034 56.281841 56.281841l0 18.86772L818.483788 135.338776 818.483788 366.685795l141.042293 0L957.614545 417.851105zM767.317455 135.338776l0-206.628034 0-18.86772c0-2.821255-2.295276-5.116531-5.116531-5.116531l-129.110543 0-57.980529 0-127.237893 0-66.514903 0-120.576169 0c-2.821255 0-5.116531 2.295276-5.116531 5.116531l0 18.86772L255.664356 135.338776 255.664356 417.115348l-0.173962 0 0 0.735757L115.842867 417.851105c3.705392 111.660102 43.008536 176.541809 126.405945 203.204052 74.138534-40.210817 169.030741-62.232366 269.241071-62.232366 100.092649 0 194.881502 21.968337 268.981151 62.089104 83.087347-26.751271 122.254392-91.602278 125.95262-203.060789L768.024559 417.851105l0-0.735757-0.707105 0L767.317455 135.338776z"  horiz-adv-x="1024" />

    
    <glyph glyph-name="youjian" unicode="&#59141;" d="M869.539604 467.378102l-716.314339 0c-42.318828 0-76.747965-34.429137-76.747965-76.747965l0-460.487789c0-42.318828 34.429137-76.747965 76.747965-76.747965l716.314339 0c42.318828 0 76.747965 34.429137 76.747965 76.747965l0 460.487789C946.287569 432.948965 911.859455 467.378102 869.539604 467.378102zM127.64261-69.857653 127.64261 380.82277l225.961358-225.961358-0.215918 0L127.668193-70.858446C127.65489-70.525871 127.64261-70.193297 127.64261-69.857653zM164.61057 416.212792l693.542706 0L511.382435 69.440927 164.61057 416.212792zM389.675512 118.789868l121.707946-121.707946 122.325 122.325L848.554664-95.440307 175.445336-95.440307 389.675512 118.789868zM670.612972 154.861412l-1.451048 0 225.960335 225.961358 0-450.472692L670.612972 154.861412z"  horiz-adv-x="1024" />

    
    <glyph glyph-name="07" unicode="&#58887;" d="M831.303 317.883 780.2 317.883 780.2 478.8C780.2 626.927 660.098 747 512 747c-148.142 0-268.2-120.073-268.2-268.2l0-160.917-8.497 0L118.634 317.883 118.634-147l786.732 0L905.366 317.883 831.303 317.883zM273.6 478.8c0 131.452 106.948 238.4 238.4 238.4s238.4-106.948 238.4-238.4l0-160.917L273.6 317.883 273.6 478.8zM875.566-117.2 148.435-117.2 148.435 288.083l86.868 0L273.6 288.083 750.4 288.083l80.902 0 44.264 0L875.566-117.2z"  horiz-adv-x="1024" />

    
    <glyph glyph-name="genzongdingwei" unicode="&#60194;" d="M512 530.285714c-80.786286 0-146.285714-65.499429-146.285714-146.285714s65.499429-146.285714 146.285714-146.285714 146.285714 65.499429 146.285714 146.285714S592.786286 530.285714 512 530.285714zM512 310.857143c-40.321829 0-73.142857 32.821029-73.142857 73.142857s32.821029 73.142857 73.142857 73.142857 73.142857-32.821029 73.142857-73.142857S552.321829 310.857143 512 310.857143zM1024 420.571429l-75.000686 0C931.392 633.678629 761.678629 803.392 548.571429 820.999314L548.571429 896l-73.142857 0 0-75.000686C262.357943 803.392 92.642743 633.678629 75.000686 420.571429L0 420.571429l0-73.142857 75.000686 0C92.642743 134.321371 262.357943-35.392 475.428571-52.999314L475.428571-128l73.142857 0 0 75.000686C761.678629-35.392 931.392 134.321371 948.999314 347.428571L1024 347.428571 1024 420.571429zM548.571429 20.143543 548.571429 91.428571l-73.142857 0 0-71.285029C302.928457 37.357714 165.357714 174.928457 148.143543 347.428571L219.428571 347.428571l0 73.142857L148.143543 420.571429C165.357714 593.071543 302.928457 730.642286 475.428571 747.856457L475.428571 676.571429l73.142857 0L548.571429 747.856457C721.071543 730.642286 858.642286 593.071543 875.856457 420.571429L804.571429 420.571429l0-73.142857 71.285029 0C858.642286 174.928457 721.071543 37.357714 548.571429 20.143543z"  horiz-adv-x="1024" />

    
    <glyph glyph-name="1" unicode="&#59821;" d="M927.334 278.742 927.334-47.592 96.667-47.592 96.667 278.742 67 278.742 67-47.592 67-77.258 96.667-77.258 927.334-77.258 957-77.258 957-47.592 957 278.742ZM501.831 620.69 501.831 135.725 531.034 135.725 531.034 620.72 705.239 446.515 726.215 467.49 537.423 656.282 516.447 677.258 495.472 656.282 306.666 467.49 327.655 446.515Z"  horiz-adv-x="1024" />

    
    <glyph glyph-name="anniu" unicode="&#59157;" d="M1023.998 201.123c0 8.544-1.707 17.123-5.173 25.211l-192 448C816.74 697.866 793.602 713.123 768 713.123L256 713.123c-25.602 0-48.74-15.257-58.825-38.789l-192-448c-3.466-8.088-5.173-16.667-5.172-25.211L0 201.123l0-250.246c0-35.347 28.654-64 64-64l896 0c35.347 0 64 28.653 64 64L1024 201.123 1023.998 201.123zM256 649.123l512 0 192-448L64 201.123 256 649.123zM960-49.123 64-49.123 64 137.123l896 0L960-49.123z"  horiz-adv-x="1024" />

    
    <glyph glyph-name="deploy" unicode="&#59493;" d="M740.909 135.396v635.315c-24.469 11.625-49.957 21.452-76.304 29.289v-283.090h-635.31c-11.625-24.47-21.454-49.957-29.294-76.304h283.091v-635.317c24.472-11.625 49.96-21.449 76.304-29.289v283.093h635.315c11.625 24.469 21.449 49.957 29.289 76.303l-283.091 0z"  horiz-adv-x="1024" />

    
    <glyph glyph-name="uiform" unicode="&#58886;" d="M799.696-212 224.304-212c-80.792 0-146.288 65.496-146.288 146.288L78.016 665.712C78.016 746.504 143.512 812 224.304 812l575.392 0c80.792 0 146.288-65.496 146.288-146.288l0-731.424C945.984-146.504 880.488-212 799.696-212zM755.816-172.992c56.544 0 102.4 45.848 102.4 102.4 0 56.552-45.848 102.408-102.4 102.408-56.552 0-102.408-45.848-102.408-102.408C653.408-127.144 699.256-172.992 755.816-172.992zM136.536 61.072l146.288 0L282.824 207.352 136.536 207.352 136.536 61.072zM136.536 236.608l146.288 0L282.824 392.648 136.536 392.648 136.536 236.608zM136.536 421.904l146.288 0L282.824 587.696 136.536 587.696 136.536 421.904zM785.072 733.984 248.688 733.984c-24.24 0-43.888-19.648-43.888-43.888s19.648-43.88 43.888-43.88l536.384 0c24.232 0 43.88 19.648 43.88 43.88S809.304 733.984 785.072 733.984zM887.472 587.696 312.08 587.696l0-165.792 575.392 0L887.472 587.696zM887.472 392.648 312.08 392.648l0-156.04 575.392 0L887.472 392.648zM887.472 207.352 312.08 207.352l0-146.28 575.392 0L887.472 207.352zM755.816 12.304c45.784 0 82.888-37.12 82.888-82.896s-37.112-82.888-82.888-82.888-82.896 37.112-82.896 82.888S710.032 12.304 755.816 12.304zM714.072-74.168l25.176-11.088 3.888-26.344c0.096-0.488 0.168-0.832 0.24-1.024 0.232-0.696 0.616-1.216 1.152-1.584 0.536-0.352 1.168-0.408 1.904-0.152 0.64 0.208 1.264 0.648 1.904 1.304l19.712 19.712 27.672-3.712c0.872-0.144 1.648-0.112 2.312 0.12 0.704 0.232 1.168 0.664 1.36 1.264 0.208 0.608 0.192 1.256-0.048 1.952-0.144 0.424-0.264 0.752-0.384 0.968l-12.976 23.28 13.176 24.04c0.624 1.168 0.816 2.12 0.56 2.848l0 0c-0.424 1.216-1.656 1.648-3.728 1.28l-27.72-5.32-19.544 18.568c-1.136 1.136-2.224 1.512-3.272 1.168-1.064-0.36-1.688-1.328-1.896-2.904l-4.192-26.6-25.248-12.56c-1.864-0.96-2.6-2.056-2.176-3.28C712.176-72.92 712.88-73.56 714.072-74.168z"  horiz-adv-x="1024" />

    
    <glyph glyph-name="iconfontbbgxiayiji" unicode="&#59448;" d="M805.459 299.348 543.62 37.503l0.083-0.083-16.161-16.161c-12.46-12.46-32.66-12.46-45.114 0-12.46 12.454-12.46 32.653 0 45.114l233.059 233.059L481.286 533.632c-12.454 12.454-12.454 32.653 0 45.114 12.46 12.454 32.66 12.454 45.114 0l26.095-26.095-0.179-0.16L805.459 299.348zM550.255 299.348 288.416 37.503l0.083-0.083-16.161-16.161c-12.46-12.46-32.66-12.46-45.114 0-12.46 12.454-12.46 32.653 0 45.114l233.059 233.059L226.082 533.632c-12.454 12.454-12.454 32.653 0 45.114 12.46 12.454 32.66 12.454 45.114 0l26.095-26.095-0.179-0.16L550.255 299.348z"  horiz-adv-x="1024" />

    
    <glyph glyph-name="gongju" unicode="&#58918;" d="M42.666667 129.333333l0-256c0-47.104 38.229333-85.333333 85.333333-85.333333l85.333333 0c47.104 0 85.333333 38.229333 85.333333 85.333333L298.666667 129.333333c0 47.104-38.229333 85.333333-85.333333 85.333333l85.333333 0L298.666667 300l-85.333333 0L213.333333 670.688c0 58.965333 40.021333 61.354667 40.021333 61.354667C253.354667 755.594667 194.218667 812 170.666667 812 147.114667 812 98.645333 763.616 98.645333 739.978667c0 0 29.354667-4.437333 29.354667-55.978667L128 300l-85.333333 0 0-85.333333 85.333333 0C80.896 214.666667 42.666667 176.437333 42.666667 129.333333L42.666667 129.333333zM981.333333 641.333333c0 47.104-38.144 85.333333-85.333333 85.333333l-85.333333 0c0 47.104-38.144 85.333333-85.333333 85.333333l-170.666667 0c-47.104 0-85.333333-38.144-85.333333-85.333333l-85.333333 0L384 812l-85.333333 0 0-85.333333 0-85.333333 0-85.333333 85.333333 0L384 641.333333l85.333333 0c0-47.104 38.229333-85.333333 85.333333-85.333333l0-682.666667c0-47.104 38.229333-85.333333 85.333333-85.333333 47.189333 0 85.333333 38.229333 85.333333 85.333333L725.333333 556l170.666667 0C943.189333 556 981.333333 594.144 981.333333 641.333333L981.333333 641.333333z"  horiz-adv-x="1024" />

    
    <glyph glyph-name="iconfontlock2" unicode="&#58931;" d="M816.858 404.301l-87.792 0L729.066 511.863c0 0 19.276 214.975-215.394 214.975 0 0-212.88 0-212.88-216.232l0-106.305-90.306 0c-24.392 0-44.349-19.957-44.349-44.351l0-446.564c0-24.393 19.957-44.351 44.349-44.351l606.371 0c24.392 0 44.349 19.957 44.349 44.351L861.206 359.95C861.207 384.343 841.25 404.301 816.858 404.301zM380.413 510.606c0 0-1.676 135.773 137.45 135.773 0 0 131.164 4.191 131.164-134.097l0-107.982L380.413 404.3 380.413 510.606zM783.482-50.926 245.478-50.926 245.478 326.222l538.005 0L783.483-50.926z"  horiz-adv-x="1024" />

    
    <glyph glyph-name="tuichu" unicode="&#59294;" d="M684.750971 621.078693l0-65.015759C788.010753 496.325387 857.49836 384.688821 857.49836 256.812385c0-190.802604-154.707524-345.489662-345.497848-345.489662-190.81386 0-345.478406 154.687058-345.478406 345.489662 0 127.878482 69.471235 239.518119 172.727946 299.254641l0 65.016783C203.072557 556.392438 108.931456 417.598348 108.931456 256.812385c0-222.604914 180.441629-403.068032 403.069055-403.068032 222.604914 0 403.067009 180.463118 403.067009 403.068032C915.06752 417.594255 820.92028 556.385275 684.750971 621.078693zM512.000512 285.607198c31.79003 0 57.589626 29.459962 57.589626 65.804728L569.590138 680.449895c0 36.346813-25.799596 65.805752-57.589626 65.805752-31.792077 0-57.56916-29.459962-57.56916-65.805752l0-329.036945C454.431352 315.068184 480.207411 285.607198 512.000512 285.607198z"  horiz-adv-x="1024" />

    
    <glyph glyph-name="fabu1" unicode="&#59494;" d="M990.78144 744.53888c-3.35872 1.59744-7.04512 2.37568-11.01824 2.37568-14.45888 0-27.60704-10.81344-27.40224-10.81344-8.8064-4.42368-880.59904-443.22816-911.44192-459.44832-17.408-9.13408-27.36128-24.73984-25.92768-40.71424 1.10592-13.14816 9.78944-23.51104 23.10144-27.77088 26.17344-8.27392 290.24256-91.58656 290.24256-91.58656l4.83328-1.47456 16.67072 50.05312-254.32064 79.54432 780.73856 406.28224c-82.82112-93.88032-420.53632-476.32384-436.10112-493.93664-20.11136-22.48704-29.4912-45.09696-29.40928-70.98368l0.28672-153.27232-0.08192 0c0 0 0.08192-53.49376 0.08192-53.6576l0-1.96608 0 0c1.18784-13.5168 12.73856-24.24832 26.54208-24.24832s25.51808 10.73152 26.74688 24.24832l0 0c0 0 0.53248 191.03744 0 205.08672-0.49152 12.4928 5.07904 26.54208 10.69056 33.05472 5.65248 6.38976 390.63552 442.61376 465.75616 527.81056-21.38112-106.41408-126.68928-629.76-128.24576-637.41952-0.8192-4.05504-2.58048-4.05504-3.35872-4.05504-0.6144 0-1.31072 0.12288-2.048 0.36864-7.45472 2.37568-268.82048 81.55136-279.92064 84.91008l-4.7104 1.4336-17.16224-50.50368 5.07904-1.59744c2.58048-0.77824 258.90816-79.09376 284.38528-86.46656 5.07904-1.47456 10.24-2.2528 15.44192-2.2528 26.99264 0 49.5616 19.37408 54.8864 46.98112 2.08896 10.93632 27.0336 134.67648 55.9104 277.99552 39.77216 197.14048 84.7872 420.61824 85.93408 427.6224l0.6144 3.31776C1009.70496 714.96576 1013.26848 733.9712 990.78144 744.53888z"  horiz-adv-x="1024" />

    
    <glyph glyph-name="msnui-attachment" unicode="&#59560;" d="M894.635 727.556q32.894-32.894 48.884-73.553t15.991-83.605-15.991-83.605-48.884-73.553l-349.952-347.21q-32.894-32.894-80.863-54.822t-101.422-25.584-109.189 14.619-103.25 65.788q-46.599 46.599-64.873 100.965t-14.619 108.275 25.127 101.422 54.365 80.406l310.662 307.921q8.222 8.223 24.214 4.111t24.214-12.335q7.31-8.222 11.878-24.214t-3.654-24.214l-309.748-307.007q-24.669-24.669-41.117-57.563t-19.188-70.356 10.964-75.837 49.341-74.010q31.98-31.98 70.813-45.23t77.209-10.964 73.098 16.904 59.392 39.29l349.037 346.297q24.669 24.669 35.179 51.167t10.051 52.538-12.335 50.71-32.894 45.686q-39.29 38.376-88.173 36.092t-98.225-51.625l-315.231-313.402q-21.015-21.015-20.558-46.599t16.904-42.031q20.102-20.102 46.142-16.447t42.488 20.102l285.992 284.164q8.222 8.222 24.214 4.111t24.214-12.335 12.793-24.214-3.654-24.214l-286.905-284.164q-32.894-32.894-63.046-45.686t-56.65-11.421-49.341 14.162-42.031 31.066q-15.533 14.619-27.868 37.462t-14.162 50.253 9.595 58.478 44.315 63.046q16.447 16.447 29.238 30.153 10.964 11.878 20.558 21.015t10.507 10.051l254.926 254.012q32.894 32.894 71.726 51.625t79.036 21.472 79.036-10.964 71.726-46.599z"  horiz-adv-x="1024" />

    
    <glyph glyph-name="msnui-download" unicode="&#59822;" d="M966.799 50.781q5.76-23.040-2.4-43.68t-25.44-36.48-42.24-24.96-53.76-9.12q-181.44-0.96-324.48-0.96h-326.4q-34.56 0-60.96 12.48t-42.24 30.72-21.12 39.84 1.44 38.88q5.76 13.44 11.52 27.84 4.8 12.48 11.52 28.32t14.4 32.16l36.48 88.32h109.44l-41.28-120.96h618.24l-41.28 120.96h104.64q20.16-48.96 36.48-88.32 6.72-17.28 13.44-33.6t12-29.28 8.64-22.080 3.36-10.080zM483.918 228.381q-18.24 21.12-41.76 52.8t-48.48 65.28-49.44 66.24-43.68 56.64q-22.080 25.92-17.28 42.72t32.64 16.8q15.36-0.96 41.28 0.48t43.2 1.44q19.2 0 24 11.52t4.8 30.72q0 21.12-0.48 46.56t-0.48 52.32-0.48 52.8-0.48 48q0 9.6 1.44 20.16t6.72 19.2 15.36 14.4 27.36 5.76q20.16 0 36.96 0.48t38.88 0.48q31.68 0 42.72-14.88t12-47.52v-37.44q0-22.080 0.48-47.040t0.48-49.92v-45.12q0-27.84 5.76-44.64t25.92-15.84q14.4 0 35.040-0.96t36-0.96q25.92 0 33.12-13.92t-10.080-36q-18.24-23.040-42.24-55.68t-49.44-67.68-49.92-68.16-43.68-57.12q-17.28-22.080-33.12-22.56t-33.12 20.64z"  horiz-adv-x="1028" />

    
    <glyph glyph-name="msnui-workflow" unicode="&#59444;" d="M174.399 499.952l93.216-48.133c2.606 6.215 5.924 12.139 9.824 17.685l-94.462 48.846c-1.56-6.616-4.476-12.963-8.576-18.398v0zM821.515 795.747c9.244-25.147-3.608-52.989-28.733-62.233-25.124-9.267-53.079 4.21-62.032 29.045-8.576 24.835 4.611 52.588 29.045 62.054 24.924 8.909 53.101-3.742 61.72-28.866v0zM174.287 549.623c9.244-25.013-3.72-52.989-28.733-62.233-25.147-9.133-53.212 4.231-62.143 29.179-8.553 24.702 4.633 52.454 29.155 62.032 24.947 8.931 52.967-3.742 61.72-28.977v0zM464.045 414.422c-2.606 53.679-48.846 95.91-103.55 93.394-53.88-2.228-96.11-48.379-93.684-102.637 2.606-54.415 48.846-96.735 103.15-93.996 54.258 2.294 96.289 48.624 94.084 103.238v0zM314.833-30.071c33.879-36.974 92.302-39.803 129.187-5.524 37.507 33.967 39.803 92.191 5.836 129.81-34.279 36.885-91.79 39.202-128.989 5.011-37.175-34.078-39.803-92.191-6.036-129.299v0zM940.367 381.435c8.931-24.947-4.032-52.789-29.179-62.345-24.924-8.909-53.189 4.21-61.921 29.491-9.244 25.013 3.832 52.477 28.934 61.699 25.058 9.133 52.9-3.697 62.165-28.845v0zM793.383 570.339c17.908-50.249-8.019-105.532-58.224-124.065-49.937-18.087-105.934 8.264-124.020 58.224-17.708 49.358 8.642 105.354 58 123.753 50.049 18.197 105.756-7.751 124.242-57.912v0zM466.049 441.641l143.978 51.385c-2.918 6.036-5.21 12.362-6.837 19.022l-145.27-51.876c3.296-5.836 6.015-12.095 8.129-18.531v0zM771.554 461.664l78.737-65.552c3.787 5.435 8.821 10.267 14.857 13.787l-80.030 66.755c-3.987-5.435-8.531-10.469-13.566-14.99v0zM741.909 633.372l28.154 91.79c-6.837 0.602-13.454 2.718-19.288 6.036l-28.2-92.012c6.66-1.18 13.097-3.208 19.334-5.813v0zM360.897 302.898l10.045-170.104c6.638 0.915 13.475 1.136 20.18 0.512l-10.001 170.706c-6.66-0.98-13.409-1.403-20.225-1.113v0z"  horiz-adv-x="1024" />

    
    <glyph glyph-name="On-line" unicode="&#58928;" d="M680.2 445.4l-249.6-251.4-94.4 94.4-35.6-35.6 112-112c5-5 11.8-9 17.8-9s12.6 4 17.6 8.8l267.4 268.8-35.2 36zM512 704c-229.8 0-416-186.2-416-416s186.2-416 416-416c229.8 0 416 186.2 416 416s-186.2 416-416 416zM512-93.4c-210.2 0-381.4 171-381.4 381.4 0 210.2 171 381.4 381.4 381.4 210.2 0 381.4-171 381.4-381.4 0-210.2-171.2-381.4-381.4-381.4z"  horiz-adv-x="1024" />

    
    <glyph glyph-name="gongzuoliu" unicode="&#59472;" d="M525.076 746.713c-253.753 0-459.466-205.735-459.466-459.466 0-253.753 205.707-459.466 459.466-459.466s459.466 205.707 459.466 459.466c0.004 253.753-205.707 459.466-459.466 459.466zM255.027 552.595h258.906v-258.941h-118.265c0.583 10.514 2.689 21.66 5.81 33.017h79.501v192.866h-192.938v-192.866h48.169c-7.521-11.228-17.755-22.19-22.223-33.017h-58.945v258.941zM461.015 44.841c-1.575-1.399-3.702-1.792-5.674-0.914-1.86 0.801-3.152 2.633-3.207 4.723l-2.006 58.838c-3.586 0.583-7.147 1.109-10.775 1.792-6.56 1.142-13.169 2.633-19.73 4.231-18.183 4.428-35.946 10.578-51.799 18.479-11.398 5.651-21.792 12.174-30.548 19.764-12.99 11.203-22.543 24.484-26.389 40.217-12.291 49.556 1.109 113.967 100.979 184.769 0.855 0.621 1.9 0.95 2.894 0.976 1.628 0.004 3.186-0.547 4.265-1.792 1.764-2.058 1.764-5.149-0.097-7.147-35.242-38.176-49.714-95.956-37.41-128.285 4.33-11.228 15.839-19.678 34.029-25.361 5.938-1.86 12.47-3.409 19.782-4.691 3.645-0.661 7.442-1.209 11.452-1.67l-1.792 54.382c-0.007 2.058 1.041 4.016 2.894 4.956 1.792 0.804 4.059 0.688 5.749-0.661l131.658-102.843c1.209-0.976 2.006-2.403 2.058-3.927 0.007-1.635-0.661-3.152-1.792-4.231l-124.554-111.562zM783.991 21.565h-258.906v59.586l33.017 27.328v-54.022h192.866v192.866h-192.866v-40.898l-33.017 27.963v45.996h258.906v-258.832z"  horiz-adv-x="1024" />

    
    <glyph glyph-name="pifumohudu" unicode="&#58959;" d="M706.112 736c-37.632-73.664-102.464-126.4-171.712-126.4s-152.832 52.736-190.4 126.4c-100.416-20.48-280-70.4-280-293.248v-218.752h128v128h64v-128h512v128h64v-128h128v218.752c0 222.848-153.408 272.768-253.888 293.248zM256 32h512v128h-512v-128zM256-160h512v64h-512v-64z"  horiz-adv-x="1024" />

    
    <glyph glyph-name="weibiaoti1" unicode="&#59823;" d="M966.144 715.776l-327.68 0 0-45.056 274.538496 0c8.99072 0 16.277504-6.87104 16.277504-15.347712l0-417.816576c0-8.476672-7.288832-15.347712-16.277504-15.347712L109.973504 222.208c-8.99072 0-16.277504 6.87104-16.277504 15.347712L93.696 655.372288c0 8.476672 7.286784 15.347712 16.277504 15.347712L384.512 670.72 384.512 715.776l-327.68 0c-10.180608 0-18.432-8.251392-18.432-18.432l0-501.76c0-10.180608 8.251392-18.432 18.432-18.432l346.74688 0-73.33888-128.342016 362.496 0L619.39712 177.152l346.74688 0c10.180608 0 18.432 8.251392 18.432 18.432L984.576 697.344C984.576 707.524608 976.324608 715.776 966.144 715.776zM511.488 549.730304l92.499968 98.77504-53.520384 0c0.612352 1.835008 0.956416 3.790848 0.956416 5.828608L551.424 785.408c0 10.180608-8.251392 18.432-18.432 18.432l-43.008 0c-10.180608 0-18.432-8.251392-18.432-18.432l0-131.072c0-2.039808 0.344064-3.995648 0.956416-5.828608l-53.520384 0L511.488 549.730304z"  horiz-adv-x="1024" />

    
    <glyph glyph-name="weibiaoti11" unicode="&#59895;" d="M148.00896 530.989056l0-0.41984c-1.527808 0.256-3.084288 0.421888-4.685824 0.421888L53.37088 530.991104c-15.525888 0-28.110848-12.58496-28.110848-28.110848l0-264.2432c0-15.521792 12.587008-28.110848 28.110848-28.110848l89.952256 0c1.599488 0 3.158016 0.16384 4.685824 0.421888l0-0.41984 327.95648-227.69664L475.96544 764.307456 148.00896 530.989056zM654.938112 710.770688l0-33.755136c170.579968-4.95616 307.339264-144.78336 307.339264-316.563456 0-171.782144-136.759296-311.605248-307.339264-316.565504l0-33.75104c189.210624 4.9664 341.07392 159.905792 341.07392 350.318592S844.148736 705.80224 654.938112 710.770688zM624.664576 587.210752l0-21.848064c110.41792-3.209216 198.940672-93.71648 198.940672-204.910592 0-111.192064-88.522752-201.701376-198.940672-204.910592l0-21.85216c122.476544 3.213312 220.7744 103.50592 220.7744 226.762752C845.438976 483.704832 747.139072 583.995392 624.664576 587.210752zM576.223232 500.965376l0-13.53728c68.421632-1.990656 123.275264-58.073088 123.275264-126.976s-54.853632-124.987392-123.275264-126.976l0-13.539328c75.894784 1.994752 136.808448 64.141312 136.808448 140.515328S652.118016 498.97472 576.223232 500.965376z"  horiz-adv-x="1024" />

    
    <glyph glyph-name="weixiu" unicode="&#59562;" d="M811.408649 831.567525l-11.989055 0c-49.300846 0-91.162256-32.432667-105.4691-77.05905L277.8701 754.508475c-8.819876 0-17.049305-4.450359-21.88545-11.846816L104.712365 511.120212c-5.243421-8.046257-5.67014-18.289552-1.096984-26.721595 4.551666-8.433066 13.370519-13.696953 22.962991-13.696953L373.970832 470.701664l0-426.931532c0-58.810431 47.856961-106.646925 106.667392-106.646925l40.275285 0c58.811454 0 106.667392 47.836495 106.667392 106.646925L627.5809 470.700641l66.36857 0c14.306844-44.645826 56.169277-77.078493 105.4691-77.078493l11.989055 0c61.065797 0 110.751407 49.685609 110.751407 110.751407L922.159032 720.836585C922.160055 781.882939 872.474446 831.567525 811.408649 831.567525zM291.993772 702.263577l396.693858 0 0-179.314968L174.862052 522.948609 291.993772 702.263577zM575.333956 43.769109c0-29.995151-24.405853-54.399981-54.42147-54.399981l-40.275285 0c-29.994128 0-54.401004 24.405853-54.401004 54.399981L426.236196 470.700641l149.09776 0L575.333956 43.769109zM869.891621 504.373555c0-32.270984-26.233478-58.505485-58.482973-58.505485l-11.989055 0c-32.229029 0-58.485019 26.234501-58.485019 58.505485L740.934574 720.836585c0 32.229029 26.25599 58.485019 58.485019 58.485019l11.989055 0c32.250518 0 58.482973-26.25599 58.482973-58.485019L869.891621 504.373555z"  horiz-adv-x="1024" />

    
    <glyph glyph-name="role" unicode="&#58892;" d="M916.834 737.519c-1.499-0.846-36.255-20.234-101.938-39.376-61.718-17.987-164.146-39.427-301.627-39.427-137.475 0-239.872 21.439-301.563 39.424-65.666 19.144-100.395 38.534-101.881 39.374L55.843 769.389l0.862-62.968c1.871-136.717 20.768-263.248 56.167-376.078 29.922-95.377 71.932-182.06 124.861-257.64C333.128-63.514 440.977-131.8 496.835-160.403c0.031-0.016 0.063-0.032 0.094-0.048l16.188-8.285 16.159 8.341c0.007 0.004 0.012 0.006 0.019 0.01 55.861 28.84 163.771 97.46 258.988 233.052 53.101 75.618 95.249 162.302 125.273 257.641 35.545 112.872 54.517 239.415 56.388 376.115L971 769.477 916.834 737.519zM165.689 439.349c142.289 108.22 256.521 0 256.521 0C277.917 307.08 165.689 439.349 165.689 439.349zM514-128.957c-0.328 0.167-0.668 0.343-1 0.513 0 0 0.023 51.181 0.06 126.829l0.143-0.106C656.104 89.774 679 188 679 188L513.157 188c0.11 205.507 0.256 435.336 0.351 435.336 277.581 0 421.537 83.57 421.537 83.57C927.168 131.341 617-75.993 514-128.957zM514-129.183c0 0.037 0.072 0.076 0 0.113C513.928-129.106 514-129.146 514-129.183z"  horiz-adv-x="1024" />

    
    <glyph glyph-name="shanchu1" unicode="&#58893;" d="M512 748C264.64 748 64 547.36 64 300s200.64-448 448-448 448 200.64 448 448S759.36 748 512 748L512 748zM736 150.688 661.312 76 512 225.312 362.688 76 288 150.688 437.312 300 288 449.312 362.688 524 512 374.688 661.312 524 736 449.312 586.688 300 736 150.688 736 150.688zM736 150.688"  horiz-adv-x="1024" />

    
    <glyph glyph-name="bug" unicode="&#59920;" d="M1024.02048 320l0 64-193.29024 0c-5.85728 72.68352-31.78496 139.01824-71.68 192.24576l161.93536 0 70.06208 280.24832-62.09536 15.52384-57.93792-231.75168-174.67392 0c-0.90112 0.69632-1.80224 1.37216-2.70336 2.048 6.71744 19.49696 10.36288 40.42752 10.36288 62.19776 0 105.75872-85.95456 191.488-192 191.488s-192-85.72928-192-191.50848c0-21.77024 3.64544-42.7008 10.36288-62.19776-0.90112-0.67584-1.80224-1.37216-2.70336-2.048l-174.67392 0-57.93792 231.75168-62.09536-15.52384 70.06208-280.24832 161.93536 0c-39.87456-53.22752-65.80224-119.56224-71.65952-192.24576l-193.29024 0 0-64 193.37216 0c3.80928-45.6704 15.50336-88.82176 33.62816-127.75424l-123.98592 0-70.06208-280.22784 62.09536-15.52384 57.93792 231.77216 112.35328 0c58.69568-78.0288 147.39456-127.75424 246.66112-127.75424s187.96544 49.72544 246.66112 127.75424l112.35328 0 57.93792-231.77216 62.09536 15.52384-70.06208 280.22784-123.98592 0c18.1248 38.93248 29.83936 82.08384 33.62816 127.75424l193.37216 0z"  horiz-adv-x="1025" />

    
    <glyph glyph-name="xiangzuo3" unicode="&#59449;" d="M510.88-212C229.376-212 0.256 18.144 0.256 301.152 0.256 582.816 229.376 812 510.88 812c282.72 0 512.864-229.184 512.864-510.848C1023.744 18.144 793.632-212 510.88-212zM510.88 733.76c-238.432 0-432.384-194.08-432.384-432.608 0-239.808 193.952-434.912 432.384-434.912 239.68 0 434.624 195.104 434.624 434.912C945.504 539.648 750.56 733.76 510.88 733.76zM612.672 14.272 328.32 301.312 612.8 585.888 668.192 530.56 438.656 300.992 668.32 69.28Z"  horiz-adv-x="1024" />

    
    <glyph glyph-name="erweima5" unicode="&#59805;" d="M433.282171 848.060151 94.944396 848.060151c-23.327288 0-42.304502-18.975167-42.304502-42.300408l0-338.341868c0-23.324218 18.977213-42.300408 42.304502-42.300408L433.282171 425.117466c23.324218 0 42.300408 18.97619 42.300408 42.300408L475.582579 805.759743C475.581556 829.084984 456.606389 848.060151 433.282171 848.060151zM438.742533 467.417875c0-3.01159-2.449795-5.461385-5.461385-5.461385L94.944396 461.95649c-3.013637 0-5.465478 2.450818-5.465478 5.461385L89.478917 805.759743c0 3.01159 2.451842 5.461385 5.465478 5.461385L433.282171 811.221128c3.01159 0 5.461385-2.449795 5.461385-5.461385L438.743556 467.417875zM322.914504 722.112648l-117.608581 0c-14.733563 0-26.719548-11.985986-26.719548-26.719548l0-117.608581c0-14.735609 11.985986-26.724665 26.719548-26.724665l117.608581 0c14.735609 0 26.724665 11.989055 26.724665 26.724665l0 117.608581C349.640192 710.126662 337.651137 722.112648 322.914504 722.112648zM312.801169 587.898877l-97.374748 0 0 97.374748 97.374748 0L312.801169 587.898877zM322.914504 220.393805l-117.608581 0c-14.733563 0-26.719548-11.989055-26.719548-26.724665l0-117.608581c0-14.732539 11.985986-26.719548 26.719548-26.719548l117.608581 0c14.735609 0 26.724665 11.987009 26.724665 26.719548l0 117.608581C349.640192 208.40475 337.651137 220.393805 322.914504 220.393805zM312.801169 86.180034l-97.374748 0 0 97.374748 97.374748 0L312.801169 86.180034zM699.123818 551.059853l117.608581 0c14.735609 0 26.724665 11.989055 26.724665 26.724665l0 117.608581c0 14.733563-11.989055 26.719548-26.724665 26.719548l-117.608581 0c-14.732539 0-26.719548-11.985986-26.719548-26.719548l0-117.608581C672.40427 563.048909 684.391279 551.059853 699.123818 551.059853zM709.243293 685.273624l97.374748 0 0-97.374748-97.374748 0L709.243293 685.273624zM433.282171 349.564723 94.944396 349.564723c-23.327288 0-42.304502-18.97619-42.304502-42.300408L52.639894-31.077553c0-23.325241 18.977213-42.301432 42.304502-42.301432L433.282171-73.378985c23.324218 0 42.300408 18.97619 42.300408 42.301432L475.582579 307.264315C475.581556 330.588533 456.606389 349.564723 433.282171 349.564723zM438.742533-31.077553c0-3.01159-2.449795-5.462408-5.461385-5.462408L94.944396-36.539962c-3.013637 0-5.465478 2.450818-5.465478 5.462408L89.478917 307.264315c0 3.010567 2.451842 5.461385 5.465478 5.461385L433.282171 312.7257c3.01159 0 5.461385-2.450818 5.461385-5.461385L438.743556-31.077553zM590.849836 348.223169c-23.325241 0-42.301432-18.978237-42.301432-42.305525l0-194.649212c0-10.172687 8.246825-18.419512 18.419512-18.419512s18.419512 8.246825 18.419512 18.419512L585.387427 305.917644c0 3.013637 2.450818 5.466502 5.462408 5.466502l204.825992 0c10.172687 0 18.419512 8.246825 18.419512 18.419512s-8.246825 18.419512-18.419512 18.419512L590.849836 348.223169zM588.757175 425.117466l338.341868 0c23.325241 0 42.301432 18.97619 42.301432 42.300408L969.400474 805.759743c0 23.324218-18.97619 42.300408-42.301432 42.300408L588.757175 848.060151c-23.324218 0-42.300408-18.975167-42.300408-42.300408l0-338.341868C546.456766 444.093657 565.432956 425.117466 588.757175 425.117466zM583.295789 805.759743c0 3.01159 2.450818 5.461385 5.461385 5.461385l338.341868 0c3.01159 0 5.462408-2.449795 5.462408-5.461385l0-338.341868c0-3.01159-2.450818-5.461385-5.462408-5.461385L588.757175 461.95649c-3.010567 0-5.461385 2.450818-5.461385 5.461385L583.295789 805.759743zM969.676767 329.803657c0 10.172687-8.246825 18.419512-18.419512 18.419512l-67.50444 0c-10.172687 0-18.419512-8.246825-18.419512-18.419512s8.246825-18.419512 18.419512-18.419512l49.084928 0 0-71.009264L779.708158 240.374882c-10.172687 0-18.419512-8.246825-18.419512-18.419512s8.246825-18.419512 18.419512-18.419512l171.549098 0c10.172687 0 18.419512 8.246825 18.419512 18.419512 0 0.076748-0.010233 0.151449-0.011256 0.228197 0.001023 0.076748 0.011256 0.150426 0.011256 0.228197L969.676767 329.803657zM630.202099-37.142689l-44.813648 0 0 51.2922c0 10.172687-8.246825 18.419512-18.419512 18.419512s-18.419512-8.246825-18.419512-18.419512l0-69.711711c0-10.172687 8.246825-18.419512 18.419512-18.419512l63.23316 0c10.172687 0 18.419512 8.246825 18.419512 18.419512S640.374786-37.142689 630.202099-37.142689zM834.04981 105.640248c0 10.172687-8.246825 18.419512-18.419512 18.419512L699.257871 124.059759c-10.172687 0-18.419512-8.246825-18.419512-18.419512l0-163.013701c0-10.172687 8.246825-18.419512 18.419512-18.419512s18.419512 8.246825 18.419512 18.419512L717.677383 87.220736 815.630299 87.220736C825.802986 87.220736 834.04981 95.467561 834.04981 105.640248zM951.060781 172.574706c-10.172687 0-18.419512-8.246825-18.419512-18.419512l0-194.301288L765.943666-40.146093c-10.172687 0-18.419512-8.246825-18.419512-18.419512s8.246825-18.419512 18.419512-18.419512l185.117115 0c10.172687 0 18.419512 8.246825 18.419512 18.419512L969.480292 154.155195C969.480292 164.327882 961.234491 172.574706 951.060781 172.574706zM655.979182 272.379806c-10.172687 0-18.419512-8.246825-18.419512-18.419512l0-59.869552c0-10.172687 8.246825-18.419512 18.419512-18.419512s18.419512 8.246825 18.419512 18.419512l0 59.869552C674.398694 264.132982 666.151869 272.379806 655.979182 272.379806z"  horiz-adv-x="1024" />

    
    <glyph glyph-name="msnui-recover" unicode="&#59561;" d="M498.868 634.853v-279.866l108.977-109.695 41.515 41.516v-29.117l34.87 35.098-92.679 93.291v248.771h-92.68zM560.655 790.334c-324.383 0-370.724-310.964-370.724-310.964h-123.573l185.362-186.581 185.363 186.581h-154.468c0 0 54.064 217.674 278.043 217.674 218.821 0 278.978-217.674 278.043-310.964-0.597-59.507-30.957-130.34-76.831-189.36l41.992 0.025v-0.101l72.384 0.117v-0.118l9.568 0.022c29.942 60.983 45.568 127.606 45.568 189.415 0 152.9-102.969 404.253-370.724 404.253zM788.911 84.588l-139.551-0.339v-90.106l-81.168 81.168c-2.513-0.123-5.026-0.193-7.536-0.193-104.899 3.888-185.363 93.288-185.363 93.288l-92.68-93.288c0 0 109.424-93.289 278.043-93.289 101.451 0 184.144 41.116 245.478 102.399l-17.222-0.112v0.471zM634.687 251.386l-110.91-110.911 110.91-110.91v69.321l154.499 0.375v82.805l-154.499-0.094v69.413zM803.583 98.884l57.988 0.377v82.805l-57.988-0.095v-83.088zM876.34 98.884l41.592 0.377v82.805l-41.592-0.095v-83.088zM932.424 181.972v-83.088l27.727 0.377v82.805l-27.727-0.095z"  horiz-adv-x="1024" />

    
    <glyph glyph-name="youjian1" unicode="&#59364;" d="M51.5072 610.9376c0-112.384 0-607.2064 0-617.6 0-11.7248-0.3072-26.1632 22.0928-26.1632s875.2128 0 875.2128 0 24.3712-1.5616 24.3712 32.5632c0 123.3408 0 556.4672 0 590.1312 0 39.296-4.096 43.008-47.616 43.6224-20.7872 0-727.6032 0-854.6304 0C54.9376 632.8 51.2 629.6 51.5072 610.9376zM97.7152 52.4992l261.888 207.104 65.6896-57.2672c35.84-31.1808 72.8064-34.56 87.04-34.56 14.2336 0 51.2256 3.3792 87.04 34.56l65.1776 56.8064 262.4-207.488 0-38.2976L97.7152 13.3568 97.7152 52.4992zM926.976 110.2528l-227.1488 179.6096 227.1488 197.9904L926.976 110.2528zM926.976 548.9344 569.1648 237.0752c-24.1152-20.992-47.744-23.2448-56.8064-23.2448-9.0624 0-32.7168 2.2528-56.8064 23.2448l-90.9056 79.232-2.8672 3.6096-0.6656-0.5376L97.7152 548.9344 97.7152 587.2832 926.976 587.2832 926.976 548.9344zM97.7152 487.8784l226.6624-197.5296-226.6624-179.2256L97.7152 487.8784z"  horiz-adv-x="1024" />

    
    <glyph glyph-name="dingshi" unicode="&#59563;" d="M510.407736-64.414823c-60.290131 0-118.797663 11.81714-173.898609 35.122939-53.199643 22.50148-100.970646 54.706973-141.983735 95.720062s-73.218582 88.784092-95.720062 141.983735c-23.305799 55.101969-35.122939 113.608477-35.122939 173.898609 0 60.290131 11.81714 118.797663 35.122939 173.898609 22.50148 53.200666 54.706973 100.970646 95.720062 141.983735 41.013089 41.014112 88.784092 73.218582 141.983735 95.721085 55.101969 23.305799 113.608477 35.122939 173.898609 35.122939s118.797663-11.81714 173.898609-35.122939c53.199643-22.502503 100.970646-54.706973 141.983735-95.721085 41.013089-41.013089 73.218582-88.784092 95.720062-141.983735 23.305799-55.100946 35.122939-113.608477 35.122939-173.898609 0-60.290131-11.81714-118.797663-35.122939-173.898609-22.50148-53.199643-54.706973-100.970646-95.720062-141.983735s-88.784092-73.218582-141.983735-95.720062C629.205399-52.597683 570.697867-64.414823 510.407736-64.414823zM510.407736 765.591905c-102.377692 0-198.627826-39.868009-271.0206-112.260783-72.392774-72.392774-112.260783-168.642908-112.260783-271.0206s39.868009-198.627826 112.260783-271.0206c72.39175-72.392774 168.642908-112.260783 271.0206-112.260783 102.377692 0 198.62885 39.868009 271.0206 112.260783s112.260783 168.642908 112.260783 271.0206-39.868009 198.627826-112.260783 271.0206S612.786451 765.591905 510.407736 765.591905zM704.347796 383.458671 512.731664 383.458671 512.731664 603.948411 411.414117 603.948411 411.414117 282.141124 704.347796 282.141124Z"  horiz-adv-x="1024" />

    
    <glyph glyph-name="qidong" unicode="&#59609;" d="M510.407736-64.414823c-60.290131 0-118.797663 11.81714-173.898609 35.122939-53.199643 22.50148-100.970646 54.706973-141.983735 95.720062s-73.218582 88.784092-95.720062 141.983735c-23.305799 55.101969-35.122939 113.608477-35.122939 173.898609 0 60.290131 11.81714 118.797663 35.122939 173.898609 22.50148 53.200666 54.706973 100.970646 95.720062 141.983735 41.013089 41.014112 88.784092 73.218582 141.983735 95.721085 55.101969 23.305799 113.608477 35.122939 173.898609 35.122939s118.797663-11.81714 173.898609-35.122939c53.199643-22.502503 100.970646-54.706973 141.983735-95.721085 41.013089-41.013089 73.218582-88.784092 95.720062-141.983735 23.305799-55.100946 35.122939-113.608477 35.122939-173.898609 0-60.290131-11.81714-118.797663-35.122939-173.898609-22.50148-53.199643-54.706973-100.970646-95.720062-141.983735s-88.784092-73.218582-141.983735-95.720062C629.205399-52.597683 570.697867-64.414823 510.407736-64.414823zM510.407736 765.591905c-102.377692 0-198.627826-39.868009-271.0206-112.260783-72.392774-72.392774-112.260783-168.642908-112.260783-271.0206 0-102.377692 39.868009-198.62885 112.260783-271.0206 72.392774-72.39175 168.642908-112.260783 271.0206-112.260783 102.377692 0 198.62885 39.868009 271.0206 112.260783 72.39175 72.392774 112.260783 168.642908 112.260783 271.0206 0 102.377692-39.868009 198.627826-112.260783 271.0206C709.036585 725.723895 612.786451 765.591905 510.407736 765.591905zM684.420955 381.506203 430.450682 187.316455 430.450682 577.305611Z"  horiz-adv-x="1024" />

    
    <glyph glyph-name="caidan" unicode="&#58888;" d="M1181.715248 690.242297 0 690.242297 0 812l1181.715248 0L1181.715248 690.242297zM1181.715248 360.878852 0 360.878852l0-121.781643 1181.715248 0L1181.715248 360.878852zM1181.715248-90.242297 0-90.242297l0-121.757703 1181.715248 0L1181.715248-90.242297z"  horiz-adv-x="1182" />

    
    <glyph glyph-name="zidian" unicode="&#58962;" d="M969.4 667 969.4 757.6 883.2 757.6 883.2 564.8 969.4 564.8ZM883.2 485.6l54.4 0 0-195-54.4 0 0 195ZM0 739.2l0-833.2 0-28 0 0c1-49.8 43.8-90 93.8-90l731.2 0 0 60L93.8-152c-17.6 0-31.8 14.2-31.8 31.8 0 17.6 14.2 31.8 31.8 31.8l731.2 0 0 51L825-28 825 812 71.2 812C35.6 804.2 7.6 775.2 0 739.2zM267.6 594.6l416.8 0 0-72.4L267.6 522.2 267.6 594.6zM267.6 400.4l416.8 0L684.4 328 267.6 328 267.6 400.4zM267.6 206.4l416.8 0L684.4 134 267.6 134 267.6 206.4zM126.8 594.6l72.4 0 0-72.4L126.8 522.2 126.8 594.6zM126.8 400.4l72.4 0L199.2 328 126.8 328 126.8 400.4zM126.8 206.4l72.4 0L199.2 134 126.8 134 126.8 206.4zM883.2 212.2l121.8 0 0-203-121.8 0 0 203Z"  horiz-adv-x="1024" />

    
    <glyph glyph-name="upload" unicode="&#59824;" d="M661.28 200.16l24.128 24.128-173.408 173.408-173.408-173.408 24.128-24.128 132.224 132.224v-540.064h34.112v540.064zM426.688-37.088v34.112h-221.792v580.032h614.144v-580.032h-221.792v-34.112h255.904v648.288h-682.4v-648.288z"  horiz-adv-x="1024" />

    
    <glyph glyph-name="mima" unicode="&#58952;" d="M648.269901 789.736185 377.423594 789.736185c-41.547078 0-75.25892-33.689261-75.25892-75.23634l0-270.868886c0-41.592238 33.711841-75.23634 75.25892-75.23634l45.137288 0L422.560882-173.388313l52.995105 0 67.355943 0 125.137993 0L668.049923-100.229327l-125.137993 0 0 107.435325 125.137993 0 0 60.198104-125.137993 0 0 300.990518 105.357971 0c41.501918 0 75.25892 33.644101 75.25892 75.23634L723.52882 714.499846C723.52882 756.024344 689.771819 789.736185 648.269901 789.736185L648.269901 789.736185zM603.110033 488.768247l-180.549151 0L422.560882 669.339978l180.549151 0L603.110033 488.768247 603.110033 488.768247zM603.110033 488.768247"  horiz-adv-x="1024" />

    
    <glyph glyph-name="mima1" unicode="&#58917;" d="M835.52 483.584 736 483.584c2.88 16.064 0 82.496 0 99.584C736 720.576 635.776 832 512 832 388.288 832 288 720.576 288 583.104c0-17.088-3.008-83.52 0-99.584L188.416 483.52c-27.52 0-49.728-22.272-49.728-49.792l0-448c0-27.52 22.272-49.728 49.728-49.728l647.104 0c27.52 0 49.856 22.272 49.856 49.728l0 448C885.376 461.312 862.976 483.584 835.52 483.584zM512 782.272c98.944 0 179.072-89.216 179.072-199.104 0-17.344-1.152-83.584-4.864-99.584L337.792 483.584C334.016 499.584 332.8 565.824 332.8 583.104 332.8 693.056 413.056 782.272 512 782.272zM835.52 35.584c0-27.52-22.272-49.792-49.728-49.792L238.208-14.208c-27.52 0-49.792 22.336-49.792 49.792L188.416 384c0 27.52 22.336 49.728 49.792 49.728l547.52 0c27.52 0 49.728-22.272 49.728-49.728L835.456 35.584zM686.272 184.896 636.352 184.896 636.352 284.416 586.624 284.416l0-99.584L487.168 184.832c0 54.976-44.608 99.584-99.648 99.584S288 239.872 288 184.896c0-54.912 44.48-99.584 99.52-99.584 36.736 0 68.48 20.096 85.76 49.792L736 135.104 736 284.416l-49.728 0L686.272 184.896z"  horiz-adv-x="1024" />

    
    <glyph glyph-name="mima2" unicode="&#58889;" d="M512 307.68c-67.8912 0-122.88-54.9888-122.88-122.88 0-41.0624 20.1728-77.5168 51.2-99.84l0-38.4c0-39.424 32.256-71.68 71.68-71.68s71.68 32.256 71.68 71.68l0 38.4c31.0272 22.3232 51.2 58.6752 51.2 99.84C634.88 252.6912 579.8912 307.68 512 307.68zM542.72 108.9216l0-62.2592c0-16.896-13.824-30.72-30.72-30.72s-30.72 13.824-30.72 30.72l0 62.2592c-30.0032 12.1856-51.2 41.5744-51.2 75.9808 0 45.2608 36.6592 81.92 81.92 81.92 45.2608 0 81.92-36.6592 81.92-81.92C593.92 150.3936 572.7232 121.0048 542.72 108.9216zM839.68 474.08l0 112.64c0 112.64-92.16 204.8-204.8 204.8l-245.76 0c-112.64 0-204.8-92.16-204.8-204.8l0-112.64c-90.112 0-163.84-73.728-163.84-163.84l0-337.92c0-90.112 73.728-163.84 163.84-163.84l655.36 0c90.112 0 163.84 73.728 163.84 163.84l0 337.92C1003.52 400.352 929.792 474.08 839.68 474.08zM250.88 581.6c0 78.848 64.512 143.36 143.36 143.36l235.52 0c78.848 0 143.36-64.512 143.36-143.36l0-107.52-522.24 0L250.88 581.6zM942.08-7.2c0-67.584-55.296-122.88-122.88-122.88l-614.4 0c-67.584 0-122.88 55.296-122.88 122.88l0 296.96c0 67.584 55.296 122.88 122.88 122.88l614.4 0c67.584 0 122.88-55.296 122.88-122.88L942.08-7.2z"  horiz-adv-x="1024" />

    
    <glyph glyph-name="shang" unicode="&#59298;" d="M70.8352 94.9952 512 556.9984 953.1648 94.9952ZM953.6512 75.7696c-0.128-0.0256-0.3328-0.0256-0.512 0L70.8608 75.7696c-7.68 0-14.6176 4.5824-17.6384 11.648s-1.5616 15.2576 3.7632 20.8128L498.1248 570.2592c7.1936 7.6032 20.5568 7.6032 27.7504 0l438.8096-459.5456c4.9408-3.4816 8.1664-9.216 8.1664-15.7184C972.8512 84.3712 964.2752 75.7696 953.6512 75.7696zM115.7376 114.1696l792.5504 0L512 529.1968 115.7376 114.1696z"  horiz-adv-x="1024" />

    
    <glyph glyph-name="chaxun1" unicode="&#58890;" d="M1014.902912-202.902912c-5.848128-5.848128-13.501234-8.736093-21.082141-8.736093-7.653106 0-15.306212 2.887964-21.082141 8.736093l-282.659522 282.154128c-75.736868-65.267997-171.039695-101.150955-272.118452-101.150955C187.645491-21.899739 0.360996 165.023761 0.360996 394.833533 0.360996 624.643305 187.645491 811.639004 417.888458 811.639004c230.170768 0 417.527462-186.995699 417.527462-416.805471 0-101.728548-36.60495-197.608968-103.100331-273.562434l282.587323-282.081929C1026.599168-172.434887 1026.599168-191.278855 1014.902912-202.902912zM776.645844 394.833533c0 197.46457-160.93182 358.107594-358.757386 358.107594-197.825566 0-358.757386-160.643023-358.757386-358.107594s160.93182-358.107594 358.757386-358.107594c95.808221 0 185.912712 37.254742 253.635479 104.905309C739.318903 209.281816 776.645844 299.241909 776.645844 394.833533zM406.625397 623.41592c-120.933512-19.49376-208.727632-122.377494-208.727632-244.682789 0-10.324473 0.866389-21.443136 2.815765-35.016569 1.949376-13.645632-7.580907-26.208278-21.226539-28.085454-1.155186-0.144398-2.382571-0.216597-3.537756-0.216597-12.20165 0-22.887118 9.024889-24.619897 21.443136-2.238172 15.883805-3.24896 29.24064-3.24896 41.947684 0 146.852993 105.410703 270.385673 250.603116 293.778185 13.501234 2.310372 26.424875-7.003314 28.590848-20.576747C429.440316 638.361137 420.19883 625.581894 406.625397 623.41592z"  horiz-adv-x="1025" />

    
    <glyph glyph-name="yonghuming" unicode="&#58912;" d="M511.994372-71.132692c197.567681 0 304.150138 57.772798 304.150138 81.497129 0 111.381763-60.85602 213.84132-158.839635 267.234367l-83.426061 45.379537 62.576197 71.510684c26.581402 30.145577 41.132816 69.331042 41.132816 110.022813 0 90.8788-72.079642 164.676573-160.546509 164.676573-88.587618 0-160.669306-73.797773-160.669306-164.676573 0-39.538505 13.859659-77.69964 38.968523-107.623159l61.190641-72.65167-84.342943-43.766806c-101.310384-52.614311-164.222225-156.086941-164.222225-270.105764C207.966007-13.359894 314.547441-71.132692 511.994372-71.132692M511.994372-147.101921c-189.997262 0-380.118344 52.479235-380.118344 157.466358 0 146.907884 83.305311 274.338159 205.354018 337.597925-35.405371 42.061978-56.837496 96.718809-56.837496 156.550499 0 132.935662 105.889679 240.768599 236.648768 240.768599 130.636293 0 236.522901-107.832937 236.522901-240.768599 0-61.550845-22.569018-117.581975-59.926858-160.213935 118.259404-64.394612 198.485587-189.774181 198.485587-333.934488C892.122949-94.622686 702.11443-147.101921 511.994372-147.101921L511.994372-147.101921 511.994372-147.101921z"  horiz-adv-x="1024" />

    
    <glyph glyph-name="gongju1" unicode="&#58929;" d="M843.516928 612.055179 675.692664 612.055179l0 55.939033c0 30.882358-25.060769 55.943127-55.939033 55.943127L395.985218 723.937338c-30.90794 0-55.94415-25.060769-55.94415-55.943127l0-55.939033L172.216805 612.055179c-61.788252 0-111.884207-50.096978-111.884207-111.887276l0-139.610688 895.066489 0L955.399087 500.167902C955.404204 561.959224 905.307226 612.055179 843.516928 612.055179zM619.753631 612.055179 395.985218 612.055179l0 27.969005c0 15.434527 12.510942 27.970028 27.967982 27.970028l167.82631 0c15.448854 0 27.974122-12.535501 27.974122-27.970028L619.753631 612.055179zM507.838725 220.459433c30.878265 0 55.939033 25.075095 55.939033 55.943127 0 10.243295-2.933819 19.692504-7.744381 27.970028l-96.351442 0c-4.825912-8.277524-7.756661-17.726733-7.756661-27.970028C451.925275 245.534528 476.931808 220.459433 507.838725 220.459433zM615.746364 304.372587c2.347464-8.970302 4.004197-18.2302 4.004197-27.970028 0-61.785182-50.095955-111.88216-111.886253-111.88216-61.787228 0-111.88216 50.096978-111.88216 111.88216 0 9.739828 1.626034 18.999726 3.943822 27.970028L60.332598 304.372587 60.332598-3.301817c0-61.790298 50.095955-111.889323 111.884207-111.889323l671.300123 0c61.791321 0 111.88216 50.101071 111.88216 111.889323L955.399087 304.372587 615.746364 304.372587z"  horiz-adv-x="1024" />

    
    <glyph glyph-name="duanxin" unicode="&#59007;" d="M880 620 144 620c-44.112 0-80-35.888-80-80l0-480c0-44.112 35.888-80 80-80l736 0c44.112 0 80 35.888 80 80L960 540C960 584.112 924.112 620 880 620zM928 60c0-26.464-21.536-48-48-48L144 12c-26.464 0-48 21.536-48 48L96 540c0 26.464 21.536 48 48 48l736 0c26.464 0 48-21.536 48-48L928 60zM806.512 454.304 512 237.296 217.488 454.304c-7.12 5.248-17.136 3.728-22.368-3.392s-3.712-17.136 3.392-22.368l304-224c0.528-0.384 1.12-0.544 1.664-0.864 0.528-0.304 1.008-0.56 1.552-0.8 2.016-0.864 4.112-1.456 6.24-1.456 0 0 0.016 0 0.016 0s0.016 0 0.016 0c2.128 0 4.224 0.592 6.24 1.456 0.56 0.24 1.04 0.512 1.584 0.816 0.544 0.304 1.136 0.464 1.648 0.848l304 224c7.12 5.248 8.64 15.264 3.392 22.368C823.664 458.032 813.584 459.536 806.512 454.304z"  horiz-adv-x="1024" />

    
    <glyph glyph-name="mimasuo" unicode="&#58891;" d="M512 264.296533c-63.2832 0-114.756267-51.5072-114.756267-114.7904s51.473067-114.756267 114.756267-114.756267c63.2832 0 114.824533 51.473067 114.824533 114.756267S575.2832 264.296533 512 264.296533zM512 88.714667c-33.553067 0-60.8256 27.272533-60.8256 60.791467s27.272533 60.8256 60.8256 60.8256c33.553067 0 60.859733-27.306667 60.859733-60.8256S545.553067 88.714667 512 88.714667zM859.579733 505.380267l-80.247467 0L779.332267 536.578133c0 150.050133-119.978667 272.110933-267.332267 272.110933S244.701867 686.594133 244.701867 536.578133l0-31.197867L164.522667 505.380267c-46.455467 0-84.2752-39.355733-84.2752-87.790933l0-536.1664c0-48.366933 37.7856-87.7568 84.2752-87.7568l695.022933 0c46.3872 0 84.1728 39.389867 84.1728 87.7568L943.7184 417.589333C943.7184 465.9904 905.966933 505.380267 859.579733 505.380267zM298.666667 536.578133c0 120.285867 95.709867 218.180267 213.333333 218.180267 117.589333 0 213.333333-97.8944 213.333333-218.180267l0-31.197867L298.666667 505.380267 298.666667 536.578133zM889.7536-118.577067c0-18.6368-13.550933-33.792-30.208-33.792L164.522667-152.369067c-16.725333 0-30.3104 15.1552-30.3104 33.792L134.212267 417.589333c0 18.6368 13.585067 33.826133 30.3104 33.826133l695.022933 0c16.622933 0 30.208-15.1552 30.208-33.826133L889.7536-118.577067z"  horiz-adv-x="1024" />

    
    <glyph glyph-name="laba" unicode="&#59896;" d="M872.802928 140.00594 872.864326 140.00594 872.864326 140.375354ZM744.055658 703.200926c-4.814656 2.889817-9.601682 5.251607-15.442714 5.251607-14.262842 0-25.758664-11.559267-25.758664-25.805736 0-10.285251 6.088672-18.519796 14.6957-23.195282 94.679359-55.247278 158.344355-157.787676 158.344355-275.30416 0-117.424386-63.605643-219.931015-158.159136-275.18034-8.29492-4.538363-15.442714-13.050224-15.442714-23.583115 0-14.261818 11.559267-25.820062 25.791409-25.820062 5.716188 0 10.252505 2.202155 15.22475 5.063319 109.871363 64.133669 183.764304 183.143157 183.764304 319.520197C927.074995 520.214335 853.495186 638.989485 744.055658 703.200926zM773.946432 384.132006c0 79.96524-43.344181 149.739373-107.821681 187.289594-2.920516 1.52268-9.785877 4.520967-14.603603 4.520967-14.325263 0-25.914206-11.589966-25.914206-25.89988 0-9.616008 5.096065-18.176988 12.865006-22.666232 49.839105-28.307719 83.45983-81.829703 83.45983-143.244448 0-62.472843-34.801621-116.817566-86.070284-144.750755-7.457856-4.538363-12.397355-12.803607-12.397355-22.188348 0-14.325263 11.588943-25.943882 25.882484-25.943882 6.090718-0.031722 13.33061 3.542686 13.33061 3.542686C729.048873 231.828228 773.946432 302.705486 773.946432 384.132006zM541.3694 771.327536c-10.846022 5.219885-23.740704 3.790326-33.215496-3.712555-0.435928-0.358157-46.423309-36.914748-97.195669-74.296123-88.308255-65.081251-114.036219-75.925227-119.257128-77.649498l-110.6194 0c-0.63752 0-1.243317-0.062422-1.879813-0.093121l-56.504922 0c-14.231119 0-25.775037-11.543917-25.775037-25.775037l0-411.697573c0-14.261818 11.512195-25.761734 25.775037-25.761734l189.511191-0.027629c5.096065-1.865487 29.395494-13.0799 107.761306-76.999698 45.613874-37.162388 86.505189-73.485665 86.940095-73.829496 5.841032-5.218862 13.298887-7.92039 20.820188-7.92039 4.349051 0 8.729825 0.930185 12.862959 2.764973 11.277858 5.064342 18.517749 16.252149 18.517749 28.619828 0 0 0.031722 97.257068 0.031722 132.212184 0.808412 2.484587 1.213641 5.127787 1.213641 7.863085 0 2.792603-1.245364 578.026786-1.245364 578.026786C559.110459 755.107109 552.214399 766.075929 541.3694 771.327536zM508.308423 169.529347c0-1.494027-0.467651-94.617961-0.467651-94.617961-13.889335 11.745509-29.332049 24.64019-45.240367 37.507242-104.59008 84.702124-130.505309 91.816149-148.030451 91.816149-0.372483 0-0.683569-0.091074-1.025353-0.091074s-0.652869 0.091074-1.025353 0.091074L170.394297 204.234777c-18.037818 0-22.248723 5.128811-22.248723 23.246447L148.145573 543.440315c0 12.32163 1.461281 20.057825 16.298198 20.057825l128.065747 0c17.090237 0 43.315528 6.991228 157.787676 90.839915 20.383236 14.914688 40.330544 29.938869 57.544601 43.113937 0 0 0.373507-445.207781 0.467651-521.368368C507.779374 173.971519 508.308423 171.765271 508.308423 169.529347z"  horiz-adv-x="1024" />

    
    <glyph glyph-name="baocun" unicode="&#58895;" d="M819.8144-156.064 204.1856-156.064C119.8336-156.064 51.2-87.4816 51.2-3.104L51.2 603.0784c0 84.3776 68.6336 153.0112 152.9856 153.0112l615.6544 0C904.1664 756.064 972.8 687.456 972.8 603.0784L972.8-3.104C972.8-87.4816 904.192-156.064 819.8144-156.064L819.8144-156.064zM204.1856 696.3648c-51.456 0-93.312-41.8304-93.312-93.312L110.8736-3.104c0-51.456 41.856-93.3376 93.312-93.3376l615.6544 0c51.456 0 93.312 41.8816 93.312 93.3376L913.152 603.0784c0 51.4816-41.856 93.312-93.312 93.312L204.1856 696.3904 204.1856 696.3648zM807.04 298.5664 216.96 298.5664 216.96 756.064l590.1056 0L807.0656 298.5664 807.04 298.5664zM276.608 358.2656l470.784 0L747.392 696.3648l-470.784 0L276.608 358.2656 276.608 358.2656zM599.8592 608.5568l59.648 0 0-198.9376-59.648 0L599.8592 608.5568 599.8592 608.5568zM599.8592 608.5568"  horiz-adv-x="1024" />

    
    <glyph glyph-name="touxiang" unicode="&#58960;" d="M512 812C229.674667 812 0 582.325333 0 300s229.674667-512 512-512 512 229.674667 512 512S794.325333 812 512 812zM523.221333 659.829333c193.6 0 193.92-148.117333 193.92-231.424s-77.568-238.08-193.92-238.272c-116.352-0.170667-193.92 154.944-193.92 238.250667C329.301333 511.690667 329.642667 659.829333 523.221333 659.829333zM512-183.776c-148.16 0-280.682667 66.688-369.429333 171.584 11.648 32.213333 28.693333 67.114667 51.733333 85.034667 49.536 38.549333 192.298667 102.613333 192.298667 102.613333l90.133333-171.413333 16.384 41.557333-25.408 51.242667 50.794667 51.264 50.773333-51.264-25.365333-51.242667 13.738667-40.597333 92.714667 170.453333c0 0 142.784-64.064 192.32-102.613333 22.570667-17.578667 38.421333-44.864 49.578667-71.722667C803.690667-111.392 666.325333-183.776 512-183.776z"  horiz-adv-x="1024" />

    
    <glyph glyph-name="denglu" unicode="&#58919;" d="M947.2-212 76.825562-212c-42.432351 0-76.812781 34.405991-76.812781 76.812781L0.012781 735.187219c0 42.432351 34.380429 76.812781 76.812781 76.812781l870.374438 0c42.40679 0 76.787219-34.380429 76.787219-76.812781l0-870.4C1023.987219-177.619571 989.60679-212 947.2-212L947.2-212zM998.4 709.6c0 42.40679-34.405991 76.787219-76.787219 76.787219L102.412781 786.387219c-42.40679 0-76.787219-34.380429-76.787219-76.787219l0-819.2c0-42.40679 34.380429-76.787219 76.787219-76.787219L921.612781-186.387219c42.381228 0 76.787219 34.380429 76.787219 76.787219L998.4 709.6 998.4 709.6zM554.036146 159.180829c54.932002 61.756965 119.526311 98.207888 201.144683 128.038342-81.618372 31.185222-149.203395 64.338692-201.144683 127.987219 1.150275-36.936595 12.499651-64.00639 35.351772-105.544084L115.219171 309.662307l0-41.972242 474.935597 0C567.021468 223.596206 557.538093 199.312631 554.036146 159.180829L554.036146 159.180829zM780.819171 620.00639 319.99361 620.00639c-42.40679 0-76.787219-34.380429-76.787219-76.787219l0-127.987219 33.792511 0 0 92.788817c0 42.432351 34.380429 76.787219 76.787219 76.787219L747.02666 584.807988c42.40679 0 76.761658-34.380429 76.761658-76.787219l0-416.015976c0-42.381228-34.354868-76.787219-76.761658-76.787219L353.786121 15.217574c-42.40679 0-76.787219 34.405991-76.787219 76.787219l0 67.201598L243.20639 159.20639l0-102.374438c0-42.457913 34.380429-76.812781 76.787219-76.812781l460.825562 0c42.381228 0 76.787219 34.329306 76.787219 76.812781L857.60639 543.19361C857.60639 585.625961 823.200399 620.00639 780.819171 620.00639L780.819171 620.00639zM780.819171 620.00639"  horiz-adv-x="1024" />

    
    <glyph glyph-name="livesvg02" unicode="&#58894;" d="M731.404095 812 219.42313 300.019036l511.980964-511.980964 73.17277 73.134699L365.578315 300.019036 804.576865 738.82723 731.404095 812zM804.576865 738.82723"  horiz-adv-x="1024" />

    
    <glyph glyph-name="lianxiwomen" unicode="&#60153;" d="M512 812C230.4 812 0 581.6 0 300s230.4-512 512-512 512 230.4 512 512S793.6 812 512 812zM512-148c-249.6 0-448 198.4-448 448 0 249.6 198.4 448 448 448s448-198.4 448-448C960 50.4 761.6-148 512-148zM691.2 261.6c-51.2 0-96-25.6-121.6-64C486.4 210.4 422.4 274.4 409.6 364c38.4 25.6 64 70.4 64 115.2C473.6 556 409.6 620 332.8 620 256 620 192 556 192 479.2 192 216.8 467.2-20 691.2-20l0 0c76.8 0 140.8 64 140.8 140.8C832 197.6 768 261.6 691.2 261.6zM691.2 31.2 691.2 31.2c-198.4 0-448 217.6-448 448 0 51.2 44.8 96 96 96s96-44.8 96-96c0-32-19.2-64-51.2-83.2L364.8 389.6l0-12.8c0-121.6 102.4-217.6 217.6-224l12.8 0 6.4 12.8c12.8 32 44.8 51.2 83.2 51.2 51.2 0 96-44.8 96-96C787.2 69.6 742.4 31.2 691.2 31.2z"  horiz-adv-x="1024" />

    
    <glyph glyph-name="xiangzuo4" unicode="&#59450;" d="M802.660916-101.105331c0 15.188934-7.739265 26.550703-18.274202 35.642778-21.433148 18.525935-43.954071 35.998889-65.311495 54.658877-15.765055 13.764492-36.169781 29.264511-50.906413 42.703591l-58.116629 48.680722c-4.972245 3.78214-9.311063 7.995091-14.253632 12.088316-13.300934 11.06501-27.039843 21.684882-39.812751 33.329083l-47.475268 39.573297c-1.632173 1.260713-1.995447 1.868557-3.476171 3.099594l-98.457406 82.231863c-7.467065 6.170536-55.940057 46.307675-57.784054 49.007157 1.406023 2.046612 1.330298 1.660826 3.370771 3.203972l7.14984 6.022157c8.192589 7.460925 17.125029 14.046924 25.468045 21.344121 9.416464 8.217149 20.1182 15.618723 29.15604 24.251334 6.907317 6.600325 14.495132 12.222369 21.780049 18.436908l326.781578 273.766131c9.204639 7.015787 28.566616 22.679535 34.234709 32.276101 8.81169 14.892175 7.103792 35.791158-3.88447 48.991808-13.890358 16.71673-36.547381 23.64349-58.252729 18.481933-19.694551-4.702092-32.481785-21.13639-47.792493-32.735565l-113.844861-95.358835c-1.813299-1.587148-2.660596-1.972934-4.428869-3.63376-8.373715-7.831362-17.593703-14.536065-26.208918-22.056342l-61.244876-51.395554c-10.474562-9.151427-30.501688-24.577768-39.842427-33.313733l-17.472953-14.71412c-19.256576-14.758122-42.110073-36.577057-61.365626-51.27685-3.067872-2.343371-5.698792-4.983501-8.661264-7.445576l-61.244876-51.395554c-3.189645-2.625804-5.773494-4.494361-8.827039-7.267521l-13.195533-10.93198c-1.723248-1.364067-2.538823-2.373047-4.322445-3.722788l-17.517979-14.669094c-11.880585-10.352789-24.742521-17.605983-29.731138-34.545794-7.768941-26.446325 8.403391-42.525536 27.206642-57.299007l57.043181-47.568389c11.970636-9.448186 22.868847-20.098757 35.006282-29.353538l17.472953-14.71412c10.021238-8.735965 20.9788-16.508999 30.622438-25.705452l65.673745-55.013965c3.083222-2.685155 5.637394-4.657067 8.827039-7.267521 6.091742-5.028527 11.320836-9.730619 17.426905-14.758122 6.121418-5.058203 11.441587-9.715269 17.593703-14.595416 2.977821-2.358721 5.728468-5.072529 8.751315-7.342222l35.308157-29.78435c3.143597-2.491751 5.833869-4.524037 8.766664-7.326872 1.813299-1.720178 2.629897-1.957585 4.444219-3.604084 1.828648-1.676176 2.493797-2.105964 4.38282-3.663436 3.113921-2.580778 5.547343-4.864798 8.766664-7.326872l26.253944-22.026666c2.977821-2.343371 5.743818-5.058203 8.751315-7.342222l17.517979-14.654768c8.389064-7.653307 17.790178-14.402011 26.208918-22.070668l70.540589-58.930157c2.917446-2.105964 6.741541-4.389984 10.323113-5.799076C762.66704-158.314287 802.660916-136.020538 802.660916-101.105331L802.660916-101.105331z"  horiz-adv-x="1024" />

    
    <glyph glyph-name="tubiao313" unicode="&#60245;" d="M840.221764 770.523338l-657.326684 0c-65.963435 0-119.486963-53.579813-119.486963-119.605672l0-391.408836c0-65.90408 53.522505-119.425562 119.486963-119.425562l336.449541 0c0 0 139.181436-113.29464 158.063364-128.052447 18.882952-14.691288 26.511042-11.375617 26.26032 0-0.188297 11.383804-0.127919 128.052447-0.127919 128.052447l136.681379 0c66.091354 0 119.548365 53.521481 119.548365 119.425562L959.770129 650.917666C959.771152 716.943526 906.313119 770.523338 840.221764 770.523338zM319.513011 386.373161c-35.327248 0-64.024177 28.57208-64.024177 64.0252 0 35.449027 28.696929 64.024177 64.024177 64.024177 35.327248 0 64.026223-28.57515 64.026223-64.024177C383.539234 414.94524 354.841282 386.373161 319.513011 386.373161zM511.590658 386.373161c-35.327248 0-64.0252 28.57208-64.0252 64.0252 0 35.449027 28.697952 64.024177 64.0252 64.024177 35.327248 0 64.026223-28.57515 64.026223-64.024177C575.616881 414.94524 546.917906 386.373161 511.590658 386.373161zM703.668305 386.373161c-35.324178 0-64.024177 28.57208-64.024177 64.0252 0 35.449027 28.699999 64.024177 64.024177 64.024177 35.326224 0 64.026223-28.57515 64.026223-64.024177C767.694528 414.94524 738.993506 386.373161 703.668305 386.373161z"  horiz-adv-x="1025" />

    
    <glyph glyph-name="jiaose1" unicode="&#58909;" d="M917.710208 29.472634c-62.132082 48.361451-241.205551 128.701221-241.205551 128.701221L560.233538-55.60402l-17.237593 50.925856 31.81766 64.281025-63.680345 64.281025-63.703881-64.281025 31.863708-64.281025-20.541849-52.127218L345.715813 158.174877c0 0-179.049932-80.363306-241.182015-128.701221s-89.559758-195.108676-89.559758-195.108676l994.050897 0C1009.024937-165.636043 990.81725-27.437517 917.710208 29.472634L917.710208 29.472634zM517.048993 176.544247c145.938813 0.231267 243.215324 194.346313 243.215324 298.832016S759.847831 765.636043 517.048993 765.636043c-242.776326 0-243.215324-185.79659-243.215324-290.283316S371.132692 176.31298 517.048993 176.544247L517.048993 176.544247z"  horiz-adv-x="1024" />

    
    <glyph glyph-name="yuangong" unicode="&#58898;" d="M381.703445 226.180737c-68.393693 0-132.694161 26.63359-181.056636 74.997088-48.362474 48.361451-74.996065 112.662943-74.996065 181.056636s26.63359 132.695185 74.996065 181.056636C249.009284 711.653571 313.309752 738.288185 381.703445 738.288185s132.695185-26.634614 181.057659-74.997088c48.362474-48.361451 74.996065-112.662943 74.996065-181.056636s-26.63359-132.695185-74.996065-181.056636C514.39863 252.815351 450.098161 226.180737 381.703445 226.180737zM381.703445 713.728836c-127.646192 0-231.493352-103.848183-231.493352-231.494375s103.84716-231.494375 231.493352-231.494375c127.646192 0 231.494375 103.848183 231.494375 231.494375S509.349637 713.728836 381.703445 713.728836zM645.659139 226.180737c-6.78145 0-12.279674 5.498224-12.279674 12.279674s5.498224 12.279674 12.279674 12.279674c127.645169 0 231.493352 103.84716 231.493352 231.494375S773.304308 713.728836 645.659139 713.728836c-6.78145 0-12.279674 5.498224-12.279674 12.279674s5.498224 12.279674 12.279674 12.279674c68.393693 0 132.694161-26.634614 181.056636-74.996065 48.362474-48.362474 74.996065-112.662943 74.996065-181.057659s-26.63359-132.695185-74.996065-181.057659S714.051809 226.180737 645.659139 226.180737zM749.080603-140.804495c-6.78145 0-12.279674 5.497201-12.279674 12.279674 0 195.801455-159.296029 355.097484-355.097484 355.097484s-355.097484-159.296029-355.097484-355.097484c0-6.782473-5.498224-12.279674-12.279674-12.279674s-12.279674 5.497201-12.279674 12.279674c0 51.248198 10.039657 100.969623 29.840632 147.782811 19.122523 45.211714 46.495964 85.811388 81.358983 120.67543 34.863019 34.861996 75.463716 62.235436 120.674407 81.357959 46.814212 19.800975 96.535637 29.840632 147.782811 29.840632s100.968599-10.04068 147.782811-29.840632c45.211714-19.122523 85.811388-46.495964 120.67543-81.357959 34.861996-34.863019 62.235436-75.463716 81.357959-120.67543 19.800975-46.813189 29.840632-96.534614 29.840632-147.782811C761.360278-135.307294 755.862054-140.804495 749.080603-140.804495zM1011.785817-140.804495c-6.78145 0-12.279674 5.498224-12.279674 12.279674 0 195.801455-159.296029 355.097484-355.097484 355.097484-6.78145 0-12.279674 5.498224-12.279674 12.279674s5.498224 12.279674 12.279674 12.279674c51.248198 0 100.969623-10.04068 147.782811-29.840632 45.211714-19.122523 85.811388-46.495964 120.67543-81.357959 34.861996-34.863019 62.235436-75.463716 81.357959-120.67543 19.800975-46.813189 29.840632-96.534614 29.840632-147.782811C1024.065492-135.30627 1018.567267-140.804495 1011.785817-140.804495z"  horiz-adv-x="1025" />

    
    <glyph glyph-name="shuaxin1" unicode="&#58941;" d="M439.4924-144.495011C214.530801-110.918653 56.695313 65.873939 56.695313 300.908448 56.695313 401.63752 73.875532 501.564615 127.597706 578.790238L48.509645 647.932179C31.016493 663.006567 34.912968 701.222627 70.560523 701.222627L285.801212 748C299.886892 748 332.119862 742.1766 332.119862 701.222627 332.119862 660.268653 327.938272 552.719902 324.33417 493.231732 320.730067 433.743562 275.335858 450.288531 264.477098 467.366352L173.531258 544.976563C136.554687 484.171875 116.167848 402.603709 116.167969 300.908448 116.168168 133.026656 246.835945-47.95703 418.093757-78.039062 447.334742-83.175344 480.39457-83.476563 494.1836-83.476563 507.972634-83.476563 532.292976-87.753907 532.292976-110.796874 532.292976-133.839843 513.46351-140.50833 498.21097-144.494976 483.679395-148.293181 446.20767-144.495011 439.4924-144.495011ZM579.200579 746.311935C804.162176 712.735577 961.997664 535.942984 961.997664 300.908477 961.997664 200.179402 944.817446 100.25231 891.095274 23.026685L970.183334-46.115254C987.676483-61.189642 983.78001-99.405702 948.132454-99.405702L732.891766-146.183075C718.806086-146.183075 686.573114-140.359677 686.573114-99.405702 686.573114-58.451728 690.754704 49.097024 694.35881 108.585194 697.962912 168.073363 743.35712 151.528394 754.215882 134.450573L845.161722 56.840362C882.138291 117.64505 902.52513 199.213216 902.525008 300.908477 902.52481 468.790269 771.857034 649.773956 600.599219 679.855987 571.358237 684.992268 538.29841 685.293487 524.509376 685.293487 510.720346 685.293487 486.4 689.570831 486.4 712.613799 486.4 735.656768 505.229466 742.325255 520.482006 746.311901 535.013581 750.110104 572.485306 746.311935 579.200579 746.311935L579.200579 746.311935Z"  horiz-adv-x="1024" />

    
    <glyph glyph-name="zhucedenglushoujihao" unicode="&#60154;" d="M721.446307 765.440675 302.577244 765.440675c-51.327892 0-93.086906-41.759014-93.086906-93.086906l0-744.707538c0-51.327892 41.759014-93.086906 93.086906-93.086906l418.869063 0c51.327892 0 93.086906 41.759014 93.086906 93.086906L814.533214 672.353769C814.533214 723.682685 772.774199 765.440675 721.446307 765.440675zM302.577244 718.897734l418.869063 0c25.663434 0 46.542941-20.879507 46.542941-46.543965l0-605.075643L256.034303 67.278126 256.034303 672.353769C256.034303 698.018227 276.91381 718.897734 302.577244 718.897734zM721.446307-118.89671 302.577244-118.89671c-25.663434 0-46.542941 20.879507-46.542941 46.542941l0 93.086906L767.989248 20.733137l0-93.086906C767.989248-98.017203 747.110765-118.89671 721.446307-118.89671zM564.384616-25.809804 459.661462-25.809804c-12.852708 0-23.271471-10.419786-23.271471-23.272495s10.418762-23.272495 23.271471-23.272495l104.723154 0c12.852708 0 23.272495 10.419786 23.272495 23.272495S577.237324-25.809804 564.384616-25.809804z"  horiz-adv-x="1024" />

    
    <glyph glyph-name="fileempty" unicode="&#58944;" d="M914.1248 522.9248l-230.4 230.4c-4.8128 4.8128-11.3152 7.4752-18.1248 7.4752l-486.4 0c-42.3424 0-76.8-34.4576-76.8-76.8l0-819.2c0-42.3424 34.4576-76.8 76.8-76.8l665.6 0c42.3424 0 76.8 34.4576 76.8 76.8l0 640c0 6.8096-2.7136 13.312-7.4752 18.1248zM859.8016 504.8l-168.6016 0c-14.1312 0-25.6 11.4688-25.6 25.6l0 168.6016 194.2016-194.2016zM870.4-135.2c0-14.1312-11.4688-25.6-25.6-25.6l-665.6 0c-14.1312 0-25.6 11.4688-25.6 25.6l0 819.2c0 14.1312 11.4688 25.6 25.6 25.6l435.2 0 0-179.2c0-42.3424 34.4576-76.8 76.8-76.8l179.2 0 0-588.8z"  horiz-adv-x="1024" />

    
    <glyph glyph-name="fasongxinxi" unicode="&#59994;" d="M996.7616 629.248c-7.4752 4.7104-17.408 2.3552-22.016-5.12-22.6304-36.1472-22.8352-76.1856-22.8352-79.0528L951.9104 141.312c0-32.9728-26.8288-59.904-59.904-59.904L265.5232 81.408c-32.9728 0-59.904 26.8288-59.904 59.904L205.6192 607.0272c0 32.9728 26.8288 59.904 59.904 59.904L891.904 666.9312c15.5648 0 26.4192-3.3792 29.7984-9.216 1.3312-2.2528 3.9936-6.9632-5.3248-16.384L585.5232 304.3328l-307.2 314.6752c-6.144 6.3488-16.2816 6.4512-22.6304 0.3072-6.3488-6.144-6.4512-16.2816-0.3072-22.6304l318.6688-326.4512c2.9696-3.072 7.168-4.8128 11.4688-4.8128 0 0 0 0 0 0 4.3008 0 8.3968 1.7408 11.4688 4.8128l191.7952 195.1744c48.0256 48.8448 86.4256 87.9616 110.8992 112.8448 0 0 0.1024 0.1024 0.1024 0.1024l27.7504 28.2624c0.1024 0.1024 0.2048 0.2048 0.3072 0.3072 0.9216 0.9216 1.4336 1.4336 1.536 1.536l0 0 10.24 10.3424c16.6912 16.9984 20.48 37.0688 10.1376 54.784-9.6256 16.6912-28.9792 25.1904-57.5488 25.1904L265.5232 698.7776c-50.688 0-91.8528-41.2672-91.8528-91.8528l0-36.2496L33.1776 570.6752c-8.8064 0-15.9744-7.168-15.9744-15.9744 0-8.8064 7.168-15.9744 15.9744-15.9744l140.4928 0 0-49.8688L69.12 488.8576c-8.8064 0-15.9744-7.168-15.9744-15.9744s7.168-15.9744 15.9744-15.9744l104.5504 0L173.6704 141.312c0-50.688 41.2672-91.8528 91.8528-91.8528L891.904 49.4592c50.688 0 91.8528 41.2672 91.8528 91.8528L983.7568 545.0752c0 0 0 0.1024 0 0.1024 0 0.3072-0.1024 32.9728 18.0224 61.952C1006.4896 614.7072 1004.2368 624.5376 996.7616 629.248z"  horiz-adv-x="1024" />

    
    <glyph glyph-name="mima3" unicode="&#58896;" d="M941.440679 354.41533c-0.779759 19.331277-10.80509 33.643238-24.889877 45.725414-20.542872 17.626449-44.770669 24.52865-71.399143 24.475438-24.378224-0.044002-48.759517-0.033769-73.142857 0.005117-10.045797 0.020466-10.29446 0.437975-10.508331 10.552334-0.633427 29.634948 0.974188 59.273988-1.178849 88.928379-2.348488 32.269961-10.016121 63.024405-23.915689 92.128257-13.718443 28.723182-32.400944 53.724599-56.793494 74.531484-4.120854 3.515057-8.398274 6.694469-12.803607 9.603729l0.811482 0c0 0-53.290717 46.979988-155.621337 46.979988S356.174002 700.364457 356.174002 700.364457l0.026606 0c-0.301875-0.226151-0.613984-0.437975-0.913812-0.667196-12.256138-9.350972-23.686469-20.085454-34.240849-32.295544-18.268062-21.13332-31.986505-44.784996-41.789779-70.844511-11.710716-31.115672-16.60212-63.414285-16.757662-96.522334-0.107447-22.313192 0.053212-44.62536-0.063445-66.937528-0.038886-7.487531-0.945535-8.267291-8.374738-8.461719-2.986007-0.083911-5.977132 0.038886-8.968256-0.039909-28.251438-0.725524-56.579623 1.865487-84.757382-1.436722-27.822672-3.263323-50.348712-16.121166-67.361177-38.598086-7.234775-9.558703-9.441023-20.656459-11.112082-32.031531l0-430.827259c1.895163-8.159844 1.768273-16.788361 6.167466-24.367991 9.232269-15.885805 22.234397-27.607778 38.188764-36.611849 9.969049-5.626137 20.938891-5.894244 31.592532-8.066723l706.999183 0c0.935302 0.8913 2.124384 0.682545 3.239787 0.690732 19.418258 0.137123 35.338856 8.755408 49.447179 21.076014 13.875009 12.115945 23.038716 27.052123 24.641213 45.896306L942.137551 351.150984C941.29537 352.105728 941.489798 353.2856 941.440679 354.41533zM358.330108 515.263715c2.045589 42.718941 15.788591 81.034595 47.668673 111.26306 21.441335 20.335141 47.26549 31.558763 76.150354 35.919071 33.604352 5.072529 66.678632 2.943029 98.03785-11.053754 45.609781-20.35356 70.591755-57.218166 81.44494-104.766089 2.816139-12.341073 4.41352-24.879644 4.408403-37.59013-0.010233-26.686802-0.146333-53.372581 0.199545-80.060407 0.083911-6.250354-2.035356-7.702426-7.930623-7.677866-48.998971 0.204661-98.008174 0.11768-147.008168 0.11768-48.312332 0-96.630804 0.115634-144.93802-0.137123-6.532787-0.033769-8.710382 1.622964-8.613168 8.41874C358.164333 458.220534 356.960924 486.798407 358.330108 515.263715zM849.88752-56.170932c0-9.806343-0.01535-9.816576-9.724479-9.816576-218.826867-0.005117-437.661921-0.005117-656.488789 0-9.53926 0-9.558703 0.01535-9.558703 9.289574 0 129.090077 0 258.180154 0 387.271254 0 9.441023 0.013303 9.456373 9.372461 9.456373 109.534695 0.005117 219.066321 0 328.5959 0 109.296265 0 218.597647 0 327.899028 0 9.889231 0 9.898441-0.010233 9.903557-9.622148C849.88752 201.546687 849.88752 72.689924 849.88752-56.170932zM518.998391 258.671733c-24.523533 0.147356-40.999786-4.223185-56.418964-12.656251-47.582715-26.024723-57.008388-87.291089-18.936281-122.93182 34.691103-32.470529 88.474031-35.890418 127.019928-8.077979 37.243229 26.877137 44.384883 75.238588 15.617699 110.227474C567.251372 248.373179 541.538757 257.975884 518.998391 258.671733zM544.682353 78.493094c-15.920598 14.902408-44.630477 16.266475-62.002123 2.947122-14.337543-10.990309-19.818371-26.813692-14.761192-42.62275 5.523807-17.269315 23.422456-28.971845 45.243437-28.938076 9.289574-0.477884 18.570961 2.51938 26.965142 8.29185C562.015114 33.214864 564.036143 60.369318 544.682353 78.493094z"  horiz-adv-x="1024" />

    
    <glyph glyph-name="xiangzuo5" unicode="&#59451;" d="M777.363819-133.636604c17.928988-17.925988 17.928988-46.989968 0-64.915956l0 0c-17.927988-17.929988-46.990968-17.929988-64.916956 0L246.636181 267.256122c-17.928988 17.925988-17.928988 46.987968 0 64.916956l0 0c17.927988 17.926988 46.990968 17.926988 64.917956 0L777.363819-133.636604 777.363819-133.636604zM311.554137 267.828122c-17.926988-17.929988-46.989968-17.929988-64.917956 0l0 0c-17.928988 17.925988-17.928988 46.986968 0 64.916956l465.811682 465.809682c17.925988 17.926988 46.988968 17.926988 64.916956 0l0 0c17.928988-17.928988 17.928988-46.989968 0-64.918956L311.554137 267.828122 311.554137 267.828122z"  horiz-adv-x="1024" />

    
    </font>
</defs>
</svg>
